<mxGraphModel dx="0" dy="0" grid="1" gridSize="10" guides="1" tooltips="1" connect="1" arrows="1" fold="1" page="0" pageScale="1" background="none" math="0" shadow="0">
  <root>
    <mxCell id="0" />
    <mxCell id="1" parent="0" />
    <mxCell id="node25" parent="1" vertex="1" value="&lt;p style=&quot;margin:0px;margin-top:4px;text-align:center;&quot;&gt;&lt;b&gt;available_units_for_hs  /* Допустимые единицы измерения для конкретных кодов ТН ВЭД (Гра... */&lt;/b&gt;&lt;/p&gt;&lt;hr size=&quot;1&quot;/&gt;&lt;p style=&quot;margin:0 0 0 4px;line-height:1.6;&quot;&gt; created_at  /* Дата/время создания записи */: timestamp with time zone&lt;br/&gt; updated_at  /* Дата/время изменения записи */: timestamp with time zone&lt;br/&gt; deleted_at  /* Дата/время удаления (мягкое удаление) */: timestamp with time zone&lt;br/&gt; status  /* Статус записи: active | deleted | archived */: varchar(255)&lt;br/&gt; codes_hs_id  /* FK на codes_hs (код ТН ВЭД) */: integer&lt;br/&gt; codes_units_id  /* FK на codes_units (единица измерения) */: integer&lt;/p&gt;&lt;hr size=&quot;1&quot;/&gt;&lt;p style=&quot;margin:0 0 0 4px;line-height:1.6;&quot;&gt; id  /* Первичный ключ */: integer&lt;/p&gt;" style="verticalAlign=top;align=left;overflow=fill;fontSize=14;fontFamily=Helvetica;html=1;rounded=0;shadow=0;comic=0;labelBackgroundColor=none;strokeWidth=1;">
      <mxGeometry x="8320" y="4021" width="792" height="243" as="geometry" />
    </mxCell>
    <mxCell id="node19" parent="1" vertex="1" value="&lt;p style=&quot;margin:0px;margin-top:4px;text-align:center;&quot;&gt;&lt;b&gt;banks  /* Справочник банков (Графа 28: банковские реквизиты плательщика... */&lt;/b&gt;&lt;/p&gt;&lt;hr size=&quot;1&quot;/&gt;&lt;p style=&quot;margin:0 0 0 4px;line-height:1.6;&quot;&gt; created_at  /* Дата/время создания записи */: timestamp with time zone&lt;br/&gt; updated_at  /* Дата/время изменения записи */: timestamp with time zone&lt;br/&gt; deleted_at  /* Дата/время удаления (soft delete) */: timestamp with time zone&lt;br/&gt; status  /* Статус записи: active | deleted | archived */: varchar(255)&lt;br/&gt; okpo  /* ОКПО банка */: varchar&lt;br/&gt; inn  /* ИНН банка */: varchar&lt;br/&gt; mfo  /* МФО банка (обязательно для графы 28) */: varchar&lt;br/&gt; name  /* Наименование банка */: varchar&lt;br/&gt; address  /* Адрес банка */: varchar&lt;/p&gt;&lt;hr size=&quot;1&quot;/&gt;&lt;p style=&quot;margin:0 0 0 4px;line-height:1.6;&quot;&gt; id  /* Первичный ключ */: integer&lt;/p&gt;" style="verticalAlign=top;align=left;overflow=fill;fontSize=14;fontFamily=Helvetica;html=1;rounded=0;shadow=0;comic=0;labelBackgroundColor=none;strokeWidth=1;">
      <mxGeometry x="6394" y="3682" width="615" height="327" as="geometry" />
    </mxCell>
    <mxCell id="node17" parent="1" vertex="1" value="&lt;p style=&quot;margin:0px;margin-top:4px;text-align:center;&quot;&gt;&lt;b&gt;ccd_analytics_daily  /* Ежедневная аналитика по созданным CCD: разбивка по статусам и... */&lt;/b&gt;&lt;/p&gt;&lt;hr size=&quot;1&quot;/&gt;&lt;p style=&quot;margin:0 0 0 4px;line-height:1.6;&quot;&gt; period_start  /* Начало периода (день) */: date&lt;br/&gt; period_type  /* Тип периода: daily */: text&lt;br/&gt; actor_scope  /* Скоуп актора: user | org_user | organization */: text&lt;br/&gt; organization_id  /* Идентификатор организации (если применимо) */: integer&lt;br/&gt; user_id  /* Идентификатор пользователя (если применимо) */: integer&lt;br/&gt; status_group  /* Группа статусов: completed | pending | failed */: text&lt;br/&gt; ccd_count  /* Количество CCD за период/скоуп/статус */: bigint&lt;/p&gt;" style="verticalAlign=top;align=left;overflow=fill;fontSize=14;fontFamily=Helvetica;html=1;rounded=0;shadow=0;comic=0;labelBackgroundColor=none;strokeWidth=1;">
      <mxGeometry x="8398" y="-619" width="757" height="242" as="geometry" />
    </mxCell>
    <mxCell id="node9" parent="1" vertex="1" value="&lt;p style=&quot;margin:0px;margin-top:4px;text-align:center;&quot;&gt;&lt;b&gt;ccd_analytics_monthly  /* Ежемесячная аналитика по созданным CCD: разбивка по статусам ... */&lt;/b&gt;&lt;/p&gt;&lt;hr size=&quot;1&quot;/&gt;&lt;p style=&quot;margin:0 0 0 4px;line-height:1.6;&quot;&gt; period_start  /* Начало периода (месяц) */: date&lt;br/&gt; period_type  /* Тип периода: monthly */: text&lt;br/&gt; actor_scope  /* Скоуп актора: user | org_user | organization */: text&lt;br/&gt; organization_id  /* Идентификатор организации (если применимо) */: integer&lt;br/&gt; user_id  /* Идентификатор пользователя (если применимо) */: integer&lt;br/&gt; status_group  /* Группа статусов: completed | pending | failed */: text&lt;br/&gt; ccd_count  /* Количество CCD за период/скоуп/статус */: bigint&lt;/p&gt;" style="verticalAlign=top;align=left;overflow=fill;fontSize=14;fontFamily=Helvetica;html=1;rounded=0;shadow=0;comic=0;labelBackgroundColor=none;strokeWidth=1;">
      <mxGeometry x="7160" y="-759" width="792" height="242" as="geometry" />
    </mxCell>
    <mxCell id="node12" parent="1" vertex="1" value="&lt;p style=&quot;margin:0px;margin-top:4px;text-align:center;&quot;&gt;&lt;b&gt;ccd_analytics_weekly  /* Еженедельная аналитика по созданным CCD: разбивка по статусам... */&lt;/b&gt;&lt;/p&gt;&lt;hr size=&quot;1&quot;/&gt;&lt;p style=&quot;margin:0 0 0 4px;line-height:1.6;&quot;&gt; period_start  /* Начало периода (неделя) */: date&lt;br/&gt; period_type  /* Тип периода: weekly */: text&lt;br/&gt; actor_scope  /* Скоуп актора: user | org_user | organization */: text&lt;br/&gt; organization_id  /* Идентификатор организации (если применимо) */: integer&lt;br/&gt; user_id  /* Идентификатор пользователя (если применимо) */: integer&lt;br/&gt; status_group  /* Группа статусов: completed | pending | failed */: text&lt;br/&gt; ccd_count  /* Количество CCD за период/скоуп/статус */: bigint&lt;/p&gt;" style="verticalAlign=top;align=left;overflow=fill;fontSize=14;fontFamily=Helvetica;html=1;rounded=0;shadow=0;comic=0;labelBackgroundColor=none;strokeWidth=1;">
      <mxGeometry x="7584" y="-459" width="785" height="242" as="geometry" />
    </mxCell>
    <mxCell id="node21" parent="1" vertex="1" value="&lt;p style=&quot;margin:0px;margin-top:4px;text-align:center;&quot;&gt;&lt;b&gt;ccd_analytics_yearly  /* Годовая аналитика по созданным CCD: разбивка по статусам и ак... */&lt;/b&gt;&lt;/p&gt;&lt;hr size=&quot;1&quot;/&gt;&lt;p style=&quot;margin:0 0 0 4px;line-height:1.6;&quot;&gt; period_start  /* Начало периода (год) */: date&lt;br/&gt; period_type  /* Тип периода: yearly */: text&lt;br/&gt; actor_scope  /* Скоуп актора: user | org_user | organization */: text&lt;br/&gt; organization_id  /* Идентификатор организации (если применимо) */: integer&lt;br/&gt; user_id  /* Идентификатор пользователя (если применимо) */: integer&lt;br/&gt; status_group  /* Группа статусов: completed | pending | failed */: text&lt;br/&gt; ccd_count  /* Количество CCD за период/скоуп/статус */: bigint&lt;/p&gt;" style="verticalAlign=top;align=left;overflow=fill;fontSize=14;fontFamily=Helvetica;html=1;rounded=0;shadow=0;comic=0;labelBackgroundColor=none;strokeWidth=1;">
      <mxGeometry x="9175" y="-179" width="763" height="242" as="geometry" />
    </mxCell>
    <mxCell id="node6" parent="1" vertex="1" value="&lt;p style=&quot;margin:0px;margin-top:4px;text-align:center;&quot;&gt;&lt;b&gt;ccd_documents  /* CCD (декларация) — заголовок. Содержит поля по графам: 1,3,5,... */&lt;/b&gt;&lt;/p&gt;&lt;hr size=&quot;1&quot;/&gt;&lt;p style=&quot;margin:0 0 0 4px;line-height:1.6;&quot;&gt; created_at  /* Служебное поле: дата/время создания записи (не графа) */: timestamp with time zone&lt;br/&gt; updated_at  /* Служебное поле: дата/время изменения (не графа) */: timestamp with time zone&lt;br/&gt; deleted_at  /* Служебное поле: дата/время удаления (soft delete; не графа) */: timestamp with time zone&lt;br/&gt; status  /* Служебное поле статуса CCD (completed/pending/failed и т.п.; ... */: text&lt;br/&gt; created_by_user_id  /* Автор CCD (пользователь платформы) для аналитики и аудита */: integer&lt;br/&gt; organization_id  /* Организация-владелец CCD (для аналитики по организациям) */: integer&lt;br/&gt; form_id  /* FK на codes_forms (Графа 1: форма/тип декларации) */: integer&lt;br/&gt; direction_code  /* Графа 1: код направления (ИМ/ЭК/ТР/НД) */: varchar(3)&lt;br/&gt; regime_code  /* Графа 1: код режима (двухзначный), хранится строкой до ввода ... */: varchar(8)&lt;br/&gt; third_subdivision  /* Графа 1: третий подраздел (например, ПНД) */: varchar(3)&lt;br/&gt; total_sheets  /* Графа 3: всего листов (авто) */: integer&lt;br/&gt; items_count  /* Графа 5: всего позиций (авто) */: integer&lt;br/&gt; post_id  /* FK на codes_posts (Графа 7: таможенный пост оформления) */: integer&lt;br/&gt; exporter_legal_id  /* FK на fea_legal_entities (Графа 2: экспортер/отправитель юр.л... */: integer&lt;br/&gt; exporter_individual_id  /* FK на fea_individual_entities (Графа 2: экспортер/отправитель... */: integer&lt;br/&gt; consignee_legal_id  /* FK на fea_legal_entities (Графа 8: получатель юр.лицо); может... */: integer&lt;br/&gt; consignee_individual_id  /* FK на fea_individual_entities (Графа 8: получатель физ.лицо) */: integer&lt;br/&gt; declarant_legal_id  /* FK на fea_legal_entities (Графа 14: декларант/брокер юр.лицо)... */: integer&lt;br/&gt; declarant_individual_id  /* FK на fea_individual_entities (Графа 14: декларант/брокер физ... */: integer&lt;br/&gt; financial_legal_id  /* FK на fea_legal_entities (Графа 9: лицо, ответственное за фин... */: integer&lt;br/&gt; financial_individual_id  /* FK на fea_individual_entities (Графа 9: лицо, ответственное з... */: integer&lt;br/&gt; exporter_legal_short_id  /* FK на fea_legal_entities_short: быстрый выбор экспортера/отпр... */: integer&lt;br/&gt; consignee_legal_short_id  /* FK на fea_legal_entities_short: быстрый выбор получателя (гра... */: integer&lt;br/&gt; declarant_legal_short_id  /* FK на fea_legal_entities_short: быстрый выбор декларанта/брок... */: integer&lt;br/&gt; financial_legal_short_id  /* FK на fea_legal_entities_short: быстрый выбор фин.ответственн... */: integer&lt;br/&gt; exporter_partner_info_id  /* FK на fea_partners_additional: доп.сведения по экспортеру (гр... */: integer&lt;br/&gt; consignee_partner_info_id  /* FK на fea_partners_additional: доп.сведения по получателю (гр... */: integer&lt;br/&gt; declarant_partner_info_id  /* FK на fea_partners_additional: доп.сведения по декларанту/бро... */: integer&lt;br/&gt; financial_partner_info_id  /* FK на fea_partners_additional: доп.сведения по фин.ответствен... */: integer&lt;br/&gt; trade_country_id  /* FK на codes_countries (Графа 11: страна торговли) */: integer&lt;br/&gt; trade_country_offshore  /* Графа 11: признак офшорной страны (если ведется) */: boolean&lt;br/&gt; customs_value_total  /* Графа 12: общая таможенная стоимость (сумма по графе 45 позиций) */: numeric(18,2)&lt;br/&gt; usd_uzs_rate  /* Графа 13: курс USD/UZS на дату принятия к оформлению */: numeric(18,6)&lt;br/&gt; dispatch_country_id  /* FK на codes_countries (Графа 15/15a: страна отправления) */: integer&lt;br/&gt; destination_country_id  /* FK на codes_countries (Графа 17/17a: страна назначения) */: integer&lt;br/&gt; transport_main_type_id  /* FK на codes_transport_types (Графа 18: вид транспорта) */: integer&lt;br/&gt; vehicle_type_code  /* Графа 18: код типа транспортного средства (спец. двузначный) */: varchar(2)&lt;br/&gt; vehicle_vin  /* Графа 18: VIN/идентификатор ТС */: varchar(32)&lt;br/&gt; vehicle_reg_country_id  /* Графа 18: страна регистрации ТС (FK на codes_countries) */: integer&lt;br/&gt; carrier_legal_id  /* Графа 18: перевозчик (юр.лицо; FK на fea_legal_entities) */: integer&lt;br/&gt; carrier_individual_id  /* Графа 18: перевозчик (физ.лицо; FK на fea_individual_entities) */: integer&lt;br/&gt; driver_name  /* Графа 18: водитель/ответственное лицо по ТС */: text&lt;br/&gt; is_container  /* Графа 19: признак использования контейнера */: boolean&lt;br/&gt; delivery_terms_id  /* FK на codes_delivery_terms (Графа 20: условия поставки) */: integer&lt;br/&gt; delivery_terms_place  /* Графа 20: пункт по условиям поставки (место) */: text&lt;br/&gt; payment_form_id  /* FK на codes_payment_forms (Графа 20: код формы оплаты) */: integer&lt;br/&gt; shipment_form_code  /* Графа 20: код формы отгрузки */: varchar(10)&lt;br/&gt; border_transport_type_id  /* FK на codes_transport_types (Графа 21: транспорт на границе) */: integer&lt;br/&gt; border_vehicle_reg_country_id  /* Графа 21: страна регистрации ТС на границе (FK на codes_count... */: integer&lt;br/&gt; contract_currency_id  /* FK на codes_currencies (Графа 22: валюта договора) */: integer&lt;br/&gt; invoice_total  /* Графа 22: общая фактурная стоимость */: numeric(18,2)&lt;br/&gt; contract_currency_rate  /* Графа 23: курс валюты договора к UZS */: numeric(18,6)&lt;br/&gt; deal_type_id  /* FK на codes_deal_types (Графа 24: характер сделки) */: integer&lt;br/&gt; settlement_currency_id  /* Графа 24: валюта расчетов (FK на codes_currencies) */: integer&lt;br/&gt; transport_at_border_id  /* FK на codes_transport_types (Графа 25: вид транспорта на гран... */: integer&lt;br/&gt; transport_inside_country_id  /* FK на codes_transport_types (Графа 26: вид транспорта внутри ... */: integer&lt;br/&gt; payer_legal_id  /* FK на fea_legal_entities (Графа 28: плательщик — юр.лицо); ав... */: integer&lt;br/&gt; payer_individual_id  /* FK на fea_individual_entities (Графа 28: плательщик — физ.лицо) */: integer&lt;br/&gt; payer_bank_id  /* Графа 28: банк плательщика (FK на banks) */: integer&lt;br/&gt; payer_bank_account  /* Графа 28: счет плательщика (как введено) */: text&lt;br/&gt; payer_mfo  /* Графа 28: МФО банка плательщика */: varchar(20)&lt;br/&gt; border_post_id  /* FK на codes_posts (Графа 29: пост на границе) */: integer&lt;br/&gt; location_license_number  /* Графа 30: номер лицензии склада/СТЗ/магазина (если применимо) */: text&lt;br/&gt; location_license_date  /* Графа 30: дата лицензии склада/СТЗ/магазина (если применимо) */: date&lt;br/&gt; location_address  /* Графа 30: адрес местонахождения товаров */: text&lt;br/&gt; location_station_name  /* Графа 30: наименование ЖД станции (если применимо) */: text&lt;br/&gt; location_district_id  /* FK на codes_districts (Графа 30: район/город местонахождения) */: integer&lt;br/&gt; procedure_code  /* Графа 37: код процедуры (режим/предыдущий/особенность) */: varchar(7)&lt;br/&gt; movement_type_id  /* FK на codes_movement_types: особенность перемещения (3-значны... */: integer&lt;br/&gt; previous_docs_summary  /* Графа 40: краткое резюме/список предшествующих документов (до... */: text&lt;br/&gt; deferments  /* Графа 48: отсрочки/рассрочки по платежам (JSON) */: jsonb&lt;br/&gt; warehouse_license_number  /* Графа 49: номер лицензии склада/режима (если применимо) */: text&lt;br/&gt; warehouse_license_date  /* Графа 49: дата лицензии склада/режима (если применимо) */: date&lt;br/&gt; responsible_full_name  /* Графа 50: ответственное лицо — ФИО */: text&lt;br/&gt; responsible_pinfl  /* Графа 50: ПИНФЛ ответственного лица */: varchar(14)&lt;br/&gt; responsible_authority  /* Графа 50: полномочия/основание */: text&lt;br/&gt; obligation_due_date  /* Графа 50: срок обязательства */: date&lt;br/&gt; transit_customs_post_id  /* Графа 53: таможенный орган назначения (FK на codes_posts) */: integer&lt;br/&gt; transit_destination_country_id  /* Графа 53: страна назначения по транзиту (FK на codes_countries) */: integer&lt;br/&gt; declaration_place  /* Графа 54: место составления декларации */: text&lt;br/&gt; declaration_date  /* Графа 54: дата составления декларации */: date&lt;br/&gt; contact_full_name  /* Графа 54: ФИО контактного лица */: text&lt;br/&gt; contact_email  /* Графа 54: email контактного лица */: text&lt;br/&gt; contact_phone  /* Графа 54: телефон контактного лица */: text&lt;br/&gt; broker_contract_number  /* Графа 54: номер договора с брокером */: text&lt;br/&gt; broker_contract_date  /* Графа 54: дата договора с брокером */: date&lt;br/&gt; declarant_reference  /* Графа 54: номер ГТД декларанта (ПИНФЛ/дата/последовательность) */: text&lt;br/&gt; external_contract_id  /* “C”: внешний идентификатор контракта (при наличии интеграций) */: text&lt;br/&gt; regime_dates  /* “C”: даты/сроки по режиму (JSON) */: jsonb&lt;br/&gt; totals_b  /* “B”: системные итоги по платежам/льготам (только чтение) */: jsonb&lt;br/&gt; customs_decisions  /* “D”: отметки/решения таможни (только чтение) */: jsonb&lt;/p&gt;&lt;hr size=&quot;1&quot;/&gt;&lt;p style=&quot;margin:0 0 0 4px;line-height:1.6;&quot;&gt; id  /* Служебное поле: первичный ключ (не графа) */: integer&lt;/p&gt;" style="verticalAlign=top;align=left;overflow=fill;fontSize=14;fontFamily=Helvetica;html=1;rounded=0;shadow=0;comic=0;labelBackgroundColor=none;strokeWidth=1;">
      <mxGeometry x="2825" y="2351" width="702" height="2623" as="geometry" />
    </mxCell>
    <mxCell id="node1" parent="1" vertex="1" value="&lt;p style=&quot;margin:0px;margin-top:4px;text-align:center;&quot;&gt;&lt;b&gt;ccd_items&lt;/b&gt;&lt;/p&gt;&lt;hr size=&quot;1&quot;/&gt;&lt;p style=&quot;margin:0 0 0 4px;line-height:1.6;&quot;&gt; created_at: timestamp with time zone&lt;br/&gt; updated_at: timestamp with time zone&lt;br/&gt; deleted_at: timestamp with time zone&lt;br/&gt; status: text&lt;br/&gt; document_id: integer&lt;br/&gt; position_no: integer&lt;br/&gt; trade_name: text&lt;br/&gt; brand: text&lt;br/&gt; model: text&lt;br/&gt; article: text&lt;br/&gt; grade: text&lt;br/&gt; specification: text&lt;br/&gt; composition: text&lt;br/&gt; energy_class: text&lt;br/&gt; manufacture_date: date&lt;br/&gt; is_packed: boolean&lt;br/&gt; packages_total: integer&lt;br/&gt; package_type: text&lt;br/&gt; package_count: integer&lt;br/&gt; bulk_code: varchar(2)&lt;br/&gt; containers: jsonb&lt;br/&gt; excise_marks: jsonb&lt;br/&gt; supply_period_from: date&lt;br/&gt; supply_period_to: date&lt;br/&gt; aggregated_import_code: text&lt;br/&gt; expiry_date: date&lt;br/&gt; investment_project_code: varchar(3)&lt;br/&gt; tech_equipment_area_code: text&lt;br/&gt; tech_equipment_year: integer&lt;br/&gt; tech_equipment_params: text&lt;br/&gt; gov_procurement_code: varchar(2)&lt;br/&gt; producer_id_code: text&lt;br/&gt; producer_district_id: integer&lt;br/&gt; consumer_id_code: text&lt;br/&gt; consumer_district_id: integer&lt;br/&gt; additional_unit_id: integer&lt;br/&gt; additional_unit_qty: numeric(18,6)&lt;br/&gt; codes_hs_id: integer&lt;br/&gt; origin_country_id: integer&lt;br/&gt; origin_alpha2: varchar(2)&lt;br/&gt; gross_weight_kg: numeric(18,6)&lt;br/&gt; net_weight_kg: numeric(18,6)&lt;br/&gt; procedure_code: varchar(7)&lt;br/&gt; quota_amount: numeric(18,6)&lt;br/&gt; quota_unit_id: integer&lt;br/&gt; previous_docs: jsonb&lt;br/&gt; invoiced_value: numeric(18,2)&lt;br/&gt; own_needs_flag: boolean&lt;br/&gt; documents: jsonb&lt;br/&gt; customs_value: numeric(18,2)&lt;br/&gt; statistical_value_thousand_usd: numeric(18,3)&lt;br/&gt; payments: jsonb&lt;br/&gt; source_invoice_file_id: integer&lt;br/&gt; source_invoice_row_ref: text&lt;/p&gt;&lt;hr size=&quot;1&quot;/&gt;&lt;p style=&quot;margin:0 0 0 4px;line-height:1.6;&quot;&gt; id: integer&lt;/p&gt;" style="verticalAlign=top;align=left;overflow=fill;fontSize=14;fontFamily=Helvetica;html=1;rounded=0;shadow=0;comic=0;labelBackgroundColor=none;strokeWidth=1;">
      <mxGeometry x="7749" y="2089" width="414" height="1587" as="geometry" />
    </mxCell>
    <mxCell id="node34" parent="1" vertex="1" value="&lt;p style=&quot;margin:0px;margin-top:4px;text-align:center;&quot;&gt;&lt;b&gt;codes_countries  /* Справочник стран (Графы 2, 11, 15, 15a, 34) */&lt;/b&gt;&lt;/p&gt;&lt;hr size=&quot;1&quot;/&gt;&lt;p style=&quot;margin:0 0 0 4px;line-height:1.6;&quot;&gt; created_at  /* Дата/время создания записи */: timestamp with time zone&lt;br/&gt; updated_at  /* Дата/время изменения записи */: timestamp with time zone&lt;br/&gt; deleted_at  /* Дата/время удаления (мягкое удаление) */: timestamp with time zone&lt;br/&gt; status  /* Статус записи: active | deleted | archived */: varchar(255)&lt;br/&gt; code  /* Цифровой код страны (обычно 3 цифры), уникальный */: varchar&lt;br/&gt; alpha_code  /* Двухбуквенный alpha-2 код страны (ISO 3166-1), уникальный */: varchar&lt;br/&gt; name  /* Наименование страны */: varchar(255)&lt;br/&gt; offshore  /* Признак офшорной юрисдикции (если ведется список) */: varchar(255)&lt;/p&gt;&lt;hr size=&quot;1&quot;/&gt;&lt;p style=&quot;margin:0 0 0 4px;line-height:1.6;&quot;&gt; id  /* Первичный ключ */: integer&lt;/p&gt;" style="verticalAlign=top;align=left;overflow=fill;fontSize=14;fontFamily=Helvetica;html=1;rounded=0;shadow=0;comic=0;labelBackgroundColor=none;strokeWidth=1;">
      <mxGeometry x="5269" y="5273" width="655" height="299" as="geometry" />
    </mxCell>
    <mxCell id="node22" parent="1" vertex="1" value="&lt;p style=&quot;margin:0px;margin-top:4px;text-align:center;&quot;&gt;&lt;b&gt;codes_currencies  /* Справочник валют (Графы 13 и 24) */&lt;/b&gt;&lt;/p&gt;&lt;hr size=&quot;1&quot;/&gt;&lt;p style=&quot;margin:0 0 0 4px;line-height:1.6;&quot;&gt; created_at  /* Дата/время создания записи */: timestamp with time zone&lt;br/&gt; updated_at  /* Дата/время изменения записи */: timestamp with time zone&lt;br/&gt; deleted_at  /* Дата/время удаления (мягкое удаление) */: timestamp with time zone&lt;br/&gt; status  /* Статус записи: active | deleted | archived */: varchar(255)&lt;br/&gt; code  /* Цифровой код валюты (обычно 3 цифры), уникальный */: varchar&lt;br/&gt; alpha_code  /* Буквенный alpha-3 код валюты (ISO 4217), уникальный */: varchar&lt;br/&gt; name  /* Наименование валюты */: varchar(255)&lt;/p&gt;&lt;hr size=&quot;1&quot;/&gt;&lt;p style=&quot;margin:0 0 0 4px;line-height:1.6;&quot;&gt; id  /* Первичный ключ */: integer&lt;/p&gt;" style="verticalAlign=top;align=left;overflow=fill;fontSize=14;fontFamily=Helvetica;html=1;rounded=0;shadow=0;comic=0;labelBackgroundColor=none;strokeWidth=1;">
      <mxGeometry x="1989" y="1807" width="655" height="271" as="geometry" />
    </mxCell>
    <mxCell id="node10" parent="1" vertex="1" value="&lt;p style=&quot;margin:0px;margin-top:4px;text-align:center;&quot;&gt;&lt;b&gt;codes_deal_types  /* Характер сделки (Графа 24) */&lt;/b&gt;&lt;/p&gt;&lt;hr size=&quot;1&quot;/&gt;&lt;p style=&quot;margin:0 0 0 4px;line-height:1.6;&quot;&gt; created_at  /* Дата/время создания записи */: timestamp with time zone&lt;br/&gt; updated_at  /* Дата/время изменения записи */: timestamp with time zone&lt;br/&gt; deleted_at  /* Дата/время удаления (мягкое удаление) */: timestamp with time zone&lt;br/&gt; status  /* Статус записи: active | deleted | archived */: varchar(255)&lt;br/&gt; code  /* Цифровой код характера сделки (уникальный) */: varchar&lt;br/&gt; alpha_code  /* Альтернативный/буквенный код */: varchar&lt;br/&gt; name  /* Наименование характера сделки */: varchar&lt;/p&gt;&lt;hr size=&quot;1&quot;/&gt;&lt;p style=&quot;margin:0 0 0 4px;line-height:1.6;&quot;&gt; id  /* Первичный ключ */: integer&lt;/p&gt;" style="verticalAlign=top;align=left;overflow=fill;fontSize=14;fontFamily=Helvetica;html=1;rounded=0;shadow=0;comic=0;labelBackgroundColor=none;strokeWidth=1;">
      <mxGeometry x="7029" y="3682" width="655" height="271" as="geometry" />
    </mxCell>
    <mxCell id="node5" parent="1" vertex="1" value="&lt;p style=&quot;margin:0px;margin-top:4px;text-align:center;&quot;&gt;&lt;b&gt;codes_delivery_terms  /* Базисы поставки Incoterms/условия поставки (Графа 20) */&lt;/b&gt;&lt;/p&gt;&lt;hr size=&quot;1&quot;/&gt;&lt;p style=&quot;margin:0 0 0 4px;line-height:1.6;&quot;&gt; created_at  /* Дата/время создания записи */: timestamp with time zone&lt;br/&gt; updated_at  /* Дата/время изменения записи */: timestamp with time zone&lt;br/&gt; deleted_at  /* Дата/время удаления (мягкое удаление) */: timestamp with time zone&lt;br/&gt; status  /* Статус записи: active | deleted | archived */: varchar(255)&lt;br/&gt; code  /* Цифровой код по приложению (уникальный) */: varchar&lt;br/&gt; alpha_code  /* Буквенный код Incoterms (например, EXW, FOB) */: varchar&lt;br/&gt; name  /* Наименование условия поставки */: varchar&lt;/p&gt;&lt;hr size=&quot;1&quot;/&gt;&lt;p style=&quot;margin:0 0 0 4px;line-height:1.6;&quot;&gt; id  /* Первичный ключ */: integer&lt;/p&gt;" style="verticalAlign=top;align=left;overflow=fill;fontSize=14;fontFamily=Helvetica;html=1;rounded=0;shadow=0;comic=0;labelBackgroundColor=none;strokeWidth=1;">
      <mxGeometry x="6986" y="3371" width="696" height="271" as="geometry" />
    </mxCell>
    <mxCell id="node32" parent="1" vertex="1" value="&lt;p style=&quot;margin:0px;margin-top:4px;text-align:center;&quot;&gt;&lt;b&gt;codes_districts  /* Справочник регионов/районов/городов (Графы 8, 30, 31) */&lt;/b&gt;&lt;/p&gt;&lt;hr size=&quot;1&quot;/&gt;&lt;p style=&quot;margin:0 0 0 4px;line-height:1.6;&quot;&gt; created_at  /* Дата/время создания записи */: timestamp with time zone&lt;br/&gt; updated_at  /* Дата/время изменения записи */: timestamp with time zone&lt;br/&gt; deleted_at  /* Дата/время удаления (мягкое удаление) */: timestamp with time zone&lt;br/&gt; status  /* Статус записи: active | deleted | archived */: varchar(255)&lt;br/&gt; code  /* Код района/города (обычно 7 цифр), уникальный */: varchar&lt;br/&gt; name  /* Наименование района/города */: text&lt;/p&gt;&lt;hr size=&quot;1&quot;/&gt;&lt;p style=&quot;margin:0 0 0 4px;line-height:1.6;&quot;&gt; id  /* Первичный ключ */: integer&lt;/p&gt;" style="verticalAlign=top;align=left;overflow=fill;fontSize=14;fontFamily=Helvetica;html=1;rounded=0;shadow=0;comic=0;labelBackgroundColor=none;strokeWidth=1;">
      <mxGeometry x="7629" y="1801" width="655" height="243" as="geometry" />
    </mxCell>
    <mxCell id="node16" parent="1" vertex="1" value="&lt;p style=&quot;margin:0px;margin-top:4px;text-align:center;&quot;&gt;&lt;b&gt;codes_forms  /* Справочник форм/типов декларации (Графа 1) */&lt;/b&gt;&lt;/p&gt;&lt;hr size=&quot;1&quot;/&gt;&lt;p style=&quot;margin:0 0 0 4px;line-height:1.6;&quot;&gt; created_at  /* Дата/время создания записи */: timestamp with time zone&lt;br/&gt; updated_at  /* Дата/время изменения записи */: timestamp with time zone&lt;br/&gt; deleted_at  /* Дата/время удаления (мягкое удаление) */: timestamp with time zone&lt;br/&gt; status  /* Статус записи: active | deleted | archived */: varchar(255)&lt;br/&gt; code  /* Код формы (уникальный) */: varchar&lt;br/&gt; name  /* Наименование формы */: text&lt;br/&gt; npa  /* Нормативно-правовой акт (реквизиты) */: text&lt;br/&gt; npa_url  /* Ссылка на НПА (URL) */: text&lt;/p&gt;&lt;hr size=&quot;1&quot;/&gt;&lt;p style=&quot;margin:0 0 0 4px;line-height:1.6;&quot;&gt; id  /* Первичный ключ */: integer&lt;/p&gt;" style="verticalAlign=top;align=left;overflow=fill;fontSize=14;fontFamily=Helvetica;html=1;rounded=0;shadow=0;comic=0;labelBackgroundColor=none;strokeWidth=1;">
      <mxGeometry x="6311" y="3343" width="655" height="299" as="geometry" />
    </mxCell>
    <mxCell id="node24" parent="1" vertex="1" value="&lt;p style=&quot;margin:0px;margin-top:4px;text-align:center;&quot;&gt;&lt;b&gt;codes_hs  /* ТН ВЭД (Графа 33): коды товаров */&lt;/b&gt;&lt;/p&gt;&lt;hr size=&quot;1&quot;/&gt;&lt;p style=&quot;margin:0 0 0 4px;line-height:1.6;&quot;&gt; created_at  /* Дата/время создания записи */: timestamp with time zone&lt;br/&gt; updated_at  /* Дата/время изменения записи */: timestamp with time zone&lt;br/&gt; deleted_at  /* Дата/время удаления (мягкое удаление) */: timestamp with time zone&lt;br/&gt; status  /* Статус записи: active | deleted | archived */: varchar(255)&lt;br/&gt; code  /* Код ТН ВЭД (обычно 10 цифр), уникальный */: varchar&lt;br/&gt; description  /* Описание товарной позиции */: text&lt;/p&gt;&lt;hr size=&quot;1&quot;/&gt;&lt;p style=&quot;margin:0 0 0 4px;line-height:1.6;&quot;&gt; id  /* Первичный ключ */: integer&lt;/p&gt;" style="verticalAlign=top;align=left;overflow=fill;fontSize=14;fontFamily=Helvetica;html=1;rounded=0;shadow=0;comic=0;labelBackgroundColor=none;strokeWidth=1;">
      <mxGeometry x="7629" y="4021" width="655" height="243" as="geometry" />
    </mxCell>
    <mxCell id="node29" parent="1" vertex="1" value="&lt;p style=&quot;margin:0px;margin-top:4px;text-align:center;&quot;&gt;&lt;b&gt;codes_movement_types  /* Особенности перемещения/процедуры (Графы 37 и/или 41) */&lt;/b&gt;&lt;/p&gt;&lt;hr size=&quot;1&quot;/&gt;&lt;p style=&quot;margin:0 0 0 4px;line-height:1.6;&quot;&gt; created_at  /* Дата/время создания записи */: timestamp with time zone&lt;br/&gt; updated_at  /* Дата/время изменения записи */: timestamp with time zone&lt;br/&gt; deleted_at  /* Дата/время удаления (мягкое удаление) */: timestamp with time zone&lt;br/&gt; status  /* Статус записи: active | deleted | archived */: varchar(255)&lt;br/&gt; code  /* Код особенности/процедуры (уникальный) */: varchar&lt;br/&gt; name  /* Наименование особенности/процедуры */: text&lt;/p&gt;&lt;hr size=&quot;1&quot;/&gt;&lt;p style=&quot;margin:0 0 0 4px;line-height:1.6;&quot;&gt; id  /* Первичный ключ */: integer&lt;/p&gt;" style="verticalAlign=top;align=left;overflow=fill;fontSize=14;fontFamily=Helvetica;html=1;rounded=0;shadow=0;comic=0;labelBackgroundColor=none;strokeWidth=1;">
      <mxGeometry x="5636" y="3682" width="738" height="243" as="geometry" />
    </mxCell>
    <mxCell id="node11" parent="1" vertex="1" value="&lt;p style=&quot;margin:0px;margin-top:4px;text-align:center;&quot;&gt;&lt;b&gt;codes_payment_forms  /* Коды формы оплаты (Графа 20) */&lt;/b&gt;&lt;/p&gt;&lt;hr size=&quot;1&quot;/&gt;&lt;p style=&quot;margin:0 0 0 4px;line-height:1.6;&quot;&gt; created_at  /* Дата/время создания записи */: timestamp with time zone&lt;br/&gt; updated_at  /* Дата/время изменения записи */: timestamp with time zone&lt;br/&gt; deleted_at  /* Дата/время удаления (мягкое удаление) */: timestamp with time zone&lt;br/&gt; status  /* Статус записи: active | deleted | archived */: varchar(255)&lt;br/&gt; code  /* Код формы оплаты (уникальный) */: varchar&lt;br/&gt; name  /* Наименование формы оплаты */: varchar&lt;/p&gt;&lt;hr size=&quot;1&quot;/&gt;&lt;p style=&quot;margin:0 0 0 4px;line-height:1.6;&quot;&gt; id  /* Первичный ключ */: integer&lt;/p&gt;" style="verticalAlign=top;align=left;overflow=fill;fontSize=14;fontFamily=Helvetica;html=1;rounded=0;shadow=0;comic=0;labelBackgroundColor=none;strokeWidth=1;">
      <mxGeometry x="5636" y="3399" width="655" height="243" as="geometry" />
    </mxCell>
    <mxCell id="node42" parent="1" vertex="1" value="&lt;p style=&quot;margin:0px;margin-top:4px;text-align:center;&quot;&gt;&lt;b&gt;codes_posts  /* Справочник таможенных постов (Графы 7 и 29) */&lt;/b&gt;&lt;/p&gt;&lt;hr size=&quot;1&quot;/&gt;&lt;p style=&quot;margin:0 0 0 4px;line-height:1.6;&quot;&gt; created_at  /* Дата/время создания записи */: timestamp with time zone&lt;br/&gt; updated_at  /* Дата/время изменения записи */: timestamp with time zone&lt;br/&gt; deleted_at  /* Дата/время удаления (мягкое удаление) */: timestamp with time zone&lt;br/&gt; status  /* Статус записи: active | deleted | archived */: varchar(255)&lt;br/&gt; code  /* Код поста (обычно 5 цифр), уникальный */: varchar&lt;br/&gt; name  /* Наименование таможенного поста */: text&lt;br/&gt; phone_number  /* Контактный телефон поста */: varchar(255)&lt;br/&gt; location_url  /* Ссылка на местоположение (карта/координаты) */: text&lt;/p&gt;&lt;hr size=&quot;1&quot;/&gt;&lt;p style=&quot;margin:0 0 0 4px;line-height:1.6;&quot;&gt; id  /* Первичный ключ */: integer&lt;/p&gt;" style="verticalAlign=top;align=left;overflow=fill;fontSize=14;fontFamily=Helvetica;html=1;rounded=0;shadow=0;comic=0;labelBackgroundColor=none;strokeWidth=1;">
      <mxGeometry x="909" y="1613" width="655" height="299" as="geometry" />
    </mxCell>
    <mxCell id="node0" parent="1" vertex="1" value="&lt;p style=&quot;margin:0px;margin-top:4px;text-align:center;&quot;&gt;&lt;b&gt;codes_transport_types  /* Виды транспорта (Графы 25/26 и для 18/21) */&lt;/b&gt;&lt;/p&gt;&lt;hr size=&quot;1&quot;/&gt;&lt;p style=&quot;margin:0 0 0 4px;line-height:1.6;&quot;&gt; created_at  /* Дата/время создания записи */: timestamp with time zone&lt;br/&gt; updated_at  /* Дата/время изменения записи */: timestamp with time zone&lt;br/&gt; deleted_at  /* Дата/время удаления (мягкое удаление) */: timestamp with time zone&lt;br/&gt; status  /* Статус записи: active | deleted | archived */: varchar(255)&lt;br/&gt; code  /* Код вида транспорта (уникальный) */: varchar&lt;br/&gt; name  /* Наименование вида транспорта */: varchar&lt;br/&gt; short_name  /* Краткое обозначение (аббревиатура) */: varchar&lt;/p&gt;&lt;hr size=&quot;1&quot;/&gt;&lt;p style=&quot;margin:0 0 0 4px;line-height:1.6;&quot;&gt; id  /* Первичный ключ */: integer&lt;/p&gt;" style="verticalAlign=top;align=left;overflow=fill;fontSize=14;fontFamily=Helvetica;html=1;rounded=0;shadow=0;comic=0;labelBackgroundColor=none;strokeWidth=1;">
      <mxGeometry x="3809" y="5087" width="655" height="271" as="geometry" />
    </mxCell>
    <mxCell id="node40" parent="1" vertex="1" value="&lt;p style=&quot;margin:0px;margin-top:4px;text-align:center;&quot;&gt;&lt;b&gt;codes_units  /* Единицы измерения (Графа 33 и правый нижний блок графы 31) */&lt;/b&gt;&lt;/p&gt;&lt;hr size=&quot;1&quot;/&gt;&lt;p style=&quot;margin:0 0 0 4px;line-height:1.6;&quot;&gt; created_at  /* Дата/время создания записи */: timestamp with time zone&lt;br/&gt; updated_at  /* Дата/время изменения записи */: timestamp with time zone&lt;br/&gt; deleted_at  /* Дата/время удаления (мягкое удаление) */: timestamp with time zone&lt;br/&gt; status  /* Статус записи: active | deleted | archived */: varchar(255)&lt;br/&gt; code  /* Цифровой код единицы измерения (уникальный) */: varchar&lt;br/&gt; alpha_code  /* Буквенный код/сокращение единицы (например, L, M3) */: varchar&lt;br/&gt; name  /* Наименование единицы измерения */: varchar&lt;/p&gt;&lt;hr size=&quot;1&quot;/&gt;&lt;p style=&quot;margin:0 0 0 4px;line-height:1.6;&quot;&gt; id  /* Первичный ключ */: integer&lt;/p&gt;" style="verticalAlign=top;align=left;overflow=fill;fontSize=14;fontFamily=Helvetica;html=1;rounded=0;shadow=0;comic=0;labelBackgroundColor=none;strokeWidth=1;">
      <mxGeometry x="8389" y="3707" width="655" height="271" as="geometry" />
    </mxCell>
    <mxCell id="node41" parent="1" vertex="1" value="&lt;p style=&quot;margin:0px;margin-top:4px;text-align:center;&quot;&gt;&lt;b&gt;currency_exchange_rate&lt;/b&gt;&lt;/p&gt;&lt;hr size=&quot;1&quot;/&gt;&lt;p style=&quot;margin:0 0 0 4px;line-height:1.6;&quot;&gt; created_at: timestamp with time zone&lt;br/&gt; updated_at: timestamp with time zone&lt;br/&gt; deleted_at: timestamp with time zone&lt;br/&gt; status: varchar(255)&lt;br/&gt; codes_currency_id: integer&lt;br/&gt; rate: numeric&lt;/p&gt;&lt;hr size=&quot;1&quot;/&gt;&lt;p style=&quot;margin:0 0 0 4px;line-height:1.6;&quot;&gt; id: integer&lt;/p&gt;" style="verticalAlign=top;align=left;overflow=fill;fontSize=14;fontFamily=Helvetica;html=1;rounded=0;shadow=0;comic=0;labelBackgroundColor=none;strokeWidth=1;">
      <mxGeometry x="1605" y="1821" width="342" height="243" as="geometry" />
    </mxCell>
    <mxCell id="node2" parent="1" vertex="1" value="&lt;p style=&quot;margin:0px;margin-top:4px;text-align:center;&quot;&gt;&lt;b&gt;fea_individual_entities  /* Данные физических лиц для ролей по графам 2/8/9/14 и плательщ... */&lt;/b&gt;&lt;/p&gt;&lt;hr size=&quot;1&quot;/&gt;&lt;p style=&quot;margin:0 0 0 4px;line-height:1.6;&quot;&gt; created_at  /* Дата/время создания записи */: timestamp with time zone&lt;br/&gt; updated_at  /* Дата/время изменения записи */: timestamp with time zone&lt;br/&gt; deleted_at  /* Дата/время удаления (soft delete) */: timestamp with time zone&lt;br/&gt; status  /* Статус записи: active | deleted | archived */: varchar(255)&lt;br/&gt; region_id  /* FK на codes_districts (место жительства/район) */: integer&lt;br/&gt; pinfl  /* ПИНФЛ физического лица (используется в графах 2/8/9/14 и 50) */: varchar&lt;br/&gt; full_name  /* ФИО */: text&lt;br/&gt; address  /* Адрес проживания */: text&lt;br/&gt; district_id  /* FK на codes_districts (район) */: integer&lt;br/&gt; phone  /* Контактный телефон */: varchar&lt;br/&gt; passport_number  /* Серия/номер паспорта */: varchar&lt;br/&gt; passport_issued_at  /* Дата выдачи паспорта */: date&lt;br/&gt; passport_issued_by  /* Кем выдан паспорт */: text&lt;br/&gt; patent_number  /* Номер патента (при наличии) */: text&lt;br/&gt; extra_info  /* Дополнительные сведения */: text&lt;br/&gt; current_account_number  /* Расчетный счет (для графы 28 при участии физ.лица) */: text&lt;br/&gt; current_account_bank_id  /* FK на banks (банк расчетного счета) */: integer&lt;br/&gt; fx_account_number  /* Валютный счет */: text&lt;br/&gt; fx_account_bank_id  /* FK на banks (банк валютного счета) */: integer&lt;/p&gt;&lt;hr size=&quot;1&quot;/&gt;&lt;p style=&quot;margin:0 0 0 4px;line-height:1.6;&quot;&gt; id  /* Первичный ключ */: integer&lt;/p&gt;" style="verticalAlign=top;align=left;overflow=fill;fontSize=14;fontFamily=Helvetica;html=1;rounded=0;shadow=0;comic=0;labelBackgroundColor=none;strokeWidth=1;">
      <mxGeometry x="4447" y="5479" width="779" height="607" as="geometry" />
    </mxCell>
    <mxCell id="node3" parent="1" vertex="1" value="&lt;p style=&quot;margin:0px;margin-top:4px;text-align:center;&quot;&gt;&lt;b&gt;fea_legal_entities  /* Полные данные юр.лиц для ролей по графам 2/8/9/14; содержит б... */&lt;/b&gt;&lt;/p&gt;&lt;hr size=&quot;1&quot;/&gt;&lt;p style=&quot;margin:0 0 0 4px;line-height:1.6;&quot;&gt; created_at  /* Дата/время создания записи */: timestamp with time zone&lt;br/&gt; updated_at  /* Дата/время изменения записи */: timestamp with time zone&lt;br/&gt; deleted_at  /* Дата/время удаления (soft delete) */: timestamp with time zone&lt;br/&gt; status  /* Статус записи: active | deleted | archived */: varchar(255)&lt;br/&gt; region_id  /* FK на codes_districts (юридический адрес/район), используется... */: integer&lt;br/&gt; okpo  /* ОКПО организации */: varchar(255)&lt;br/&gt; inn  /* ИНН организации (ключевой реквизит для граф 2/8/9/14) */: varchar(255)&lt;br/&gt; name  /* Полное наименование организации */: varchar(255)&lt;br/&gt; address  /* Юридический/почтовый адрес */: varchar(255)&lt;br/&gt; additional_information  /* Доп. сведения */: varchar(255)&lt;br/&gt; supervisor  /* Руководитель/контактное лицо */: varchar(255)&lt;br/&gt; oked  /* ОКЭД (числовое значение) */: integer&lt;br/&gt; oked_code  /* ОКЭД (код) */: integer&lt;br/&gt; phone_number  /* Контактный телефон */: varchar(255)&lt;br/&gt; registration_number  /* Номер регистрации */: varchar(255)&lt;br/&gt; registration_date  /* Дата регистрации */: varchar(255)&lt;br/&gt; current_account_number  /* Расчетный счет (используется при заполнении графы 28) */: varchar(255)&lt;br/&gt; current_account_bank_id  /* FK на banks (банк расчетного счета) */: integer&lt;br/&gt; fx_account_number  /* Валютный счет (при наличии) */: varchar(255)&lt;br/&gt; fx_account_bank_id  /* FK на banks (банк валютного счета) */: integer&lt;/p&gt;&lt;hr size=&quot;1&quot;/&gt;&lt;p style=&quot;margin:0 0 0 4px;line-height:1.6;&quot;&gt; id  /* Первичный ключ */: integer&lt;/p&gt;" style="verticalAlign=top;align=left;overflow=fill;fontSize=14;fontFamily=Helvetica;html=1;rounded=0;shadow=0;comic=0;labelBackgroundColor=none;strokeWidth=1;">
      <mxGeometry x="3652" y="5845" width="729" height="635" as="geometry" />
    </mxCell>
    <mxCell id="node13" parent="1" vertex="1" value="&lt;p style=&quot;margin:0px;margin-top:4px;text-align:center;&quot;&gt;&lt;b&gt;fea_legal_entities_short  /* Укороченный справочник юр.лиц (ИНН/ОКПО/адрес). Используется ... */&lt;/b&gt;&lt;/p&gt;&lt;hr size=&quot;1&quot;/&gt;&lt;p style=&quot;margin:0 0 0 4px;line-height:1.6;&quot;&gt; created_at  /* Дата/время создания записи */: timestamp with time zone&lt;br/&gt; updated_at  /* Дата/время изменения записи */: timestamp with time zone&lt;br/&gt; deleted_at  /* Дата/время удаления (soft delete) */: timestamp with time zone&lt;br/&gt; status  /* Статус записи: active | deleted | archived */: varchar(255)&lt;br/&gt; okpo  /* ОКПО организации */: varchar(255)&lt;br/&gt; inn  /* ИНН организации (используется в графах 2/8/9/14) */: varchar(255)&lt;br/&gt; name  /* Наименование организации */: varchar(255)&lt;br/&gt; address  /* Адрес организации */: varchar(255)&lt;/p&gt;&lt;hr size=&quot;1&quot;/&gt;&lt;p style=&quot;margin:0 0 0 4px;line-height:1.6;&quot;&gt; id  /* Первичный ключ */: integer&lt;/p&gt;" style="verticalAlign=top;align=left;overflow=fill;fontSize=14;fontFamily=Helvetica;html=1;rounded=0;shadow=0;comic=0;labelBackgroundColor=none;strokeWidth=1;">
      <mxGeometry x="52" y="1413" width="808" height="299" as="geometry" />
    </mxCell>
    <mxCell id="node4" parent="1" vertex="1" value="&lt;p style=&quot;margin:0px;margin-top:4px;text-align:center;&quot;&gt;&lt;b&gt;fea_partners  /* Контрагенты ФЭД: страна и адрес. Используется как источник да... */&lt;/b&gt;&lt;/p&gt;&lt;hr size=&quot;1&quot;/&gt;&lt;p style=&quot;margin:0 0 0 4px;line-height:1.6;&quot;&gt; created_at  /* Дата/время создания записи */: timestamp with time zone&lt;br/&gt; updated_at  /* Дата/время изменения записи */: timestamp with time zone&lt;br/&gt; deleted_at  /* Дата/время удаления (soft delete) */: timestamp with time zone&lt;br/&gt; status  /* Статус записи: active | deleted | archived */: varchar(255)&lt;br/&gt; codes_country_id  /* FK на codes_countries; страна контрагента (используется в гра... */: integer&lt;br/&gt; address  /* Почтовый адрес контрагента (используется в графах 2/8/9/14) */: text&lt;/p&gt;&lt;hr size=&quot;1&quot;/&gt;&lt;p style=&quot;margin:0 0 0 4px;line-height:1.6;&quot;&gt; id  /* Первичный ключ */: integer&lt;/p&gt;" style="verticalAlign=top;align=left;overflow=fill;fontSize=14;fontFamily=Helvetica;html=1;rounded=0;shadow=0;comic=0;labelBackgroundColor=none;strokeWidth=1;">
      <mxGeometry x="5958" y="5301" width="676" height="243" as="geometry" />
    </mxCell>
    <mxCell id="node37" parent="1" vertex="1" value="&lt;p style=&quot;margin:0px;margin-top:4px;text-align:center;&quot;&gt;&lt;b&gt;fea_partners_additional  /* Дополнительные сведения по контрагентам (наименование, адрес,... */&lt;/b&gt;&lt;/p&gt;&lt;hr size=&quot;1&quot;/&gt;&lt;p style=&quot;margin:0 0 0 4px;line-height:1.6;&quot;&gt; created_at  /* Дата/время создания записи */: timestamp with time zone&lt;br/&gt; updated_at  /* Дата/время изменения записи */: timestamp with time zone&lt;br/&gt; deleted_at  /* Дата/время удаления (soft delete) */: timestamp with time zone&lt;br/&gt; status  /* Статус записи: active | deleted | archived */: varchar(255)&lt;br/&gt; name  /* Наименование контрагента (для печатных форм и подсказок в гра... */: varchar(255)&lt;br/&gt; address  /* Адрес контрагента */: varchar(255)&lt;br/&gt; country_id  /* FK на codes_countries (страна контрагента) */: integer&lt;br/&gt; additional_info  /* Прочая информация (телефоны, примечания) */: text&lt;/p&gt;&lt;hr size=&quot;1&quot;/&gt;&lt;p style=&quot;margin:0 0 0 4px;line-height:1.6;&quot;&gt; id  /* Первичный ключ */: integer&lt;/p&gt;" style="verticalAlign=top;align=left;overflow=fill;fontSize=14;fontFamily=Helvetica;html=1;rounded=0;shadow=0;comic=0;labelBackgroundColor=none;strokeWidth=1;">
      <mxGeometry x="-403" y="2013" width="799" height="299" as="geometry" />
    </mxCell>
    <mxCell id="node27" parent="1" vertex="1" value="&lt;p style=&quot;margin:0px;margin-top:4px;text-align:center;&quot;&gt;&lt;b&gt;files  /* Файлы (S3/MinIO/local). Используются для вложений по графе 44... */&lt;/b&gt;&lt;/p&gt;&lt;hr size=&quot;1&quot;/&gt;&lt;p style=&quot;margin:0 0 0 4px;line-height:1.6;&quot;&gt; created_at  /* Дата/время загрузки файла */: timestamp with time zone&lt;br/&gt; updated_at  /* Дата/время изменения записи */: timestamp with time zone&lt;br/&gt; deleted_at  /* Дата/время удаления (soft delete) */: timestamp with time zone&lt;br/&gt; status  /* Статус файла: active | deleted | archived */: text&lt;br/&gt; storage  /* Тип хранилища: s3 | minio | local */: text&lt;br/&gt; bucket  /* Имя бакета */: text&lt;br/&gt; object_key  /* Ключ объекта в бакете */: text&lt;br/&gt; original_name  /* Оригинальное имя файла */: text&lt;br/&gt; mime_type  /* MIME-тип файла */: text&lt;br/&gt; extension  /* Расширение (если известно) */: text&lt;br/&gt; size_bytes  /* Размер файла в байтах */: bigint&lt;br/&gt; etag  /* ETag/хеш объекта для проверки целостности */: text&lt;br/&gt; content_disposition  /* Режим отдачи (inline/attachment; filename=...) */: text&lt;br/&gt; metadata  /* Произвольные метаданные провайдера */: jsonb&lt;br/&gt; uploaded_by  /* FK на users (кто загрузил) */: integer&lt;br/&gt; organization_id  /* FK на organizations (чья сущность файла) */: integer&lt;/p&gt;&lt;hr size=&quot;1&quot;/&gt;&lt;p style=&quot;margin:0 0 0 4px;line-height:1.6;&quot;&gt; id  /* Первичный ключ */: integer&lt;/p&gt;" style="verticalAlign=top;align=left;overflow=fill;fontSize=14;fontFamily=Helvetica;html=1;rounded=0;shadow=0;comic=0;labelBackgroundColor=none;strokeWidth=1;">
      <mxGeometry x="6512" y="-799" width="609" height="523" as="geometry" />
    </mxCell>
    <mxCell id="node38" parent="1" vertex="1" value="&lt;p style=&quot;margin:0px;margin-top:4px;text-align:center;&quot;&gt;&lt;b&gt;idempotency_keys  /* Ключи идемпотентности для безопасного повторения платежных за... */&lt;/b&gt;&lt;/p&gt;&lt;hr size=&quot;1&quot;/&gt;&lt;p style=&quot;margin:0 0 0 4px;line-height:1.6;&quot;&gt; created_at  /* Когда создан ключ */: timestamp with time zone&lt;br/&gt; response_hash  /* Хеш ответа для сравнения */: text&lt;/p&gt;&lt;hr size=&quot;1&quot;/&gt;&lt;p style=&quot;margin:0 0 0 4px;line-height:1.6;&quot;&gt; key  /* Уникальный ключ идемпотентности */: text&lt;/p&gt;" style="verticalAlign=top;align=left;overflow=fill;fontSize=14;fontFamily=Helvetica;html=1;rounded=0;shadow=0;comic=0;labelBackgroundColor=none;strokeWidth=1;">
      <mxGeometry x="5438" y="2597" width="756" height="141" as="geometry" />
    </mxCell>
    <mxCell id="node14" parent="1" vertex="1" value="&lt;p style=&quot;margin:0px;margin-top:4px;text-align:center;&quot;&gt;&lt;b&gt;individual_users  /* Профиль физ.лица-пользователя (декларант/получатель/отправите... */&lt;/b&gt;&lt;/p&gt;&lt;hr size=&quot;1&quot;/&gt;&lt;p style=&quot;margin:0 0 0 4px;line-height:1.6;&quot;&gt; created_at  /* Дата/время создания записи */: timestamp with time zone&lt;br/&gt; updated_at  /* Дата/время изменения записи */: timestamp with time zone&lt;br/&gt; deleted_at  /* Дата/время удаления (soft delete) */: timestamp with time zone&lt;br/&gt; status  /* Статус записи: active | deleted | archived */: varchar(255)&lt;br/&gt; user_id  /* Уникальная связь с users (1:1) */: integer&lt;br/&gt; birthday  /* Дата рождения */: date&lt;br/&gt; citizenship  /* Гражданство */: varchar&lt;br/&gt; address  /* Адрес проживания */: varchar&lt;br/&gt; pinfl  /* ПИНФЛ (графы 2/8/14/50/54) */: varchar&lt;br/&gt; document_serial_number  /* Серия/номер документа */: varchar&lt;br/&gt; document_issued_date  /* Дата выдачи документа */: date&lt;br/&gt; document_issued_by  /* Кем выдан документ */: varchar&lt;/p&gt;&lt;hr size=&quot;1&quot;/&gt;&lt;p style=&quot;margin:0 0 0 4px;line-height:1.6;&quot;&gt; id  /* Первичный ключ */: integer&lt;/p&gt;" style="verticalAlign=top;align=left;overflow=fill;fontSize=14;fontFamily=Helvetica;html=1;rounded=0;shadow=0;comic=0;labelBackgroundColor=none;strokeWidth=1;">
      <mxGeometry x="10296" y="-563" width="726" height="411" as="geometry" />
    </mxCell>
    <mxCell id="node30" parent="1" vertex="1" value="&lt;p style=&quot;margin:0px;margin-top:4px;text-align:center;&quot;&gt;&lt;b&gt;legal_users  /* Реквизиты юр.лица для пользователя (декларант/брокер). Источн... */&lt;/b&gt;&lt;/p&gt;&lt;hr size=&quot;1&quot;/&gt;&lt;p style=&quot;margin:0 0 0 4px;line-height:1.6;&quot;&gt; created_at  /* Дата/время создания записи */: timestamp with time zone&lt;br/&gt; updated_at  /* Дата/время изменения записи */: timestamp with time zone&lt;br/&gt; deleted_at  /* Дата/время удаления (soft delete) */: timestamp with time zone&lt;br/&gt; status  /* Статус записи: active | deleted | archived */: varchar(255)&lt;br/&gt; user_id  /* Уникальная связь с users (1:1) */: integer&lt;br/&gt; inn  /* ИНН юр.лица (графы 14/54) */: varchar&lt;br/&gt; oked  /* ОКЭД */: varchar&lt;br/&gt; address  /* Юридический адрес */: varchar&lt;br/&gt; vat_status  /* Статус плательщика НДС */: varchar&lt;br/&gt; vat_registration_number  /* Регистрационный номер НДС */: varchar&lt;br/&gt; vat_registration_date  /* Дата регистрации НДС */: date&lt;br/&gt; bank_mfo  /* МФО обслуживающего банка (для графы 28) */: varchar&lt;br/&gt; bank_current_account  /* Расчетный счет (для графы 28) */: varchar&lt;br/&gt; customs_broker_registration_number  /* Рег. номер таможенного брокера (для графы 14 при брокере) */: varchar&lt;br/&gt; customs_broker_registration_date  /* Дата регистрации брокера */: date&lt;/p&gt;&lt;hr size=&quot;1&quot;/&gt;&lt;p style=&quot;margin:0 0 0 4px;line-height:1.6;&quot;&gt; id  /* Первичный ключ */: integer&lt;/p&gt;" style="verticalAlign=top;align=left;overflow=fill;fontSize=14;fontFamily=Helvetica;html=1;rounded=0;shadow=0;comic=0;labelBackgroundColor=none;strokeWidth=1;">
      <mxGeometry x="10296" y="-132" width="666" height="495" as="geometry" />
    </mxCell>
    <mxCell id="node33" parent="1" vertex="1" value="&lt;p style=&quot;margin:0px;margin-top:4px;text-align:center;&quot;&gt;&lt;b&gt;ocr_jobs  /* OCR/vision задания с учетом токенов. Привязаны к пользователю... */&lt;/b&gt;&lt;/p&gt;&lt;hr size=&quot;1&quot;/&gt;&lt;p style=&quot;margin:0 0 0 4px;line-height:1.6;&quot;&gt; created_at: timestamp with time zone&lt;br/&gt; updated_at: timestamp with time zone&lt;br/&gt; deleted_at: timestamp with time zone&lt;br/&gt; status: text&lt;br/&gt; organization_id  /* FK на organizations: лимит на уровне организации */: integer&lt;br/&gt; user_id  /* FK на users: лимит на уровне пользователя */: integer&lt;br/&gt; document_id  /* FK на ccd_documents: опционально связывает OCR с конкретной д... */: integer&lt;br/&gt; input_file_id  /* Входной файл (скан/фото первичного документа) */: integer&lt;br/&gt; job_type  /* Тип задания: invoice | contract | cmr | other */: text&lt;br/&gt; model  /* Модель провайдера */: text&lt;br/&gt; mode  /* Режим: ocr/vision/layout и т.п. */: text&lt;br/&gt; language_hint  /* Подсказка языка для OCR */: text&lt;br/&gt; page_count: integer&lt;br/&gt; tokens_prompt  /* Затраты токенов на вход (prompt/context) */: bigint&lt;br/&gt; tokens_output  /* Затраты токенов на выход (completion/вывод) */: bigint&lt;br/&gt; tokens_total  /* Итого токенов за задание */: bigint&lt;br/&gt; output_data  /* Результат OCR в JSON (распознанные поля для автозаполнения CCD) */: jsonb&lt;br/&gt; meta: jsonb&lt;/p&gt;&lt;hr size=&quot;1&quot;/&gt;&lt;p style=&quot;margin:0 0 0 4px;line-height:1.6;&quot;&gt; id: integer&lt;/p&gt;" style="verticalAlign=top;align=left;overflow=fill;fontSize=14;fontFamily=Helvetica;html=1;rounded=0;shadow=0;comic=0;labelBackgroundColor=none;strokeWidth=1;">
      <mxGeometry x="5840" y="-827" width="632" height="579" as="geometry" />
    </mxCell>
    <mxCell id="node36" parent="1" vertex="1" value="&lt;p style=&quot;margin:0px;margin-top:4px;text-align:center;&quot;&gt;&lt;b&gt;ocr_traffic_limits  /* Месячные лимиты токенов OCR. Применяются либо к пользователю,... */&lt;/b&gt;&lt;/p&gt;&lt;hr size=&quot;1&quot;/&gt;&lt;p style=&quot;margin:0 0 0 4px;line-height:1.6;&quot;&gt; created_at: timestamp with time zone&lt;br/&gt; updated_at: timestamp with time zone&lt;br/&gt; deleted_at: timestamp with time zone&lt;br/&gt; status: text&lt;br/&gt; organization_id  /* FK на organizations: лимит на организацию */: integer&lt;br/&gt; user_id  /* FK на users: лимит на пользователя */: integer&lt;br/&gt; period_month  /* Месяц лимита (первый день месяца) */: date&lt;br/&gt; price_plan_id  /* FK на price_plans: тариф, по которому установлен лимит */: integer&lt;br/&gt; limit_tokens  /* Месячный лимит токенов */: bigint&lt;br/&gt; used_tokens  /* Использовано токенов за месяц */: bigint&lt;br/&gt; carryover_from_prev_month  /* Перенос остатка токенов с прошлого месяца */: bigint&lt;br/&gt; overage_allowed  /* Разрешен ли перерасход (с последующим биллингом) */: boolean&lt;br/&gt; blocked_at  /* Момент блокировки при превышении лимита */: timestamp with time zone&lt;br/&gt; meta: jsonb&lt;/p&gt;&lt;hr size=&quot;1&quot;/&gt;&lt;p style=&quot;margin:0 0 0 4px;line-height:1.6;&quot;&gt; id: integer&lt;/p&gt;" style="verticalAlign=top;align=left;overflow=fill;fontSize=14;fontFamily=Helvetica;html=1;rounded=0;shadow=0;comic=0;labelBackgroundColor=none;strokeWidth=1;">
      <mxGeometry x="5068" y="-1311" width="737" height="467" as="geometry" />
    </mxCell>
    <mxCell id="node31" parent="1" vertex="1" value="&lt;p style=&quot;margin:0px;margin-top:4px;text-align:center;&quot;&gt;&lt;b&gt;organizations  /* Организации (тенантность/учетная сущность платформы). Не явля... */&lt;/b&gt;&lt;/p&gt;&lt;hr size=&quot;1&quot;/&gt;&lt;p style=&quot;margin:0 0 0 4px;line-height:1.6;&quot;&gt; created_at  /* Дата/время создания записи */: timestamp with time zone&lt;br/&gt; updated_at  /* Дата/время изменения записи */: timestamp with time zone&lt;br/&gt; deleted_at  /* Дата/время удаления (soft delete) */: timestamp with time zone&lt;br/&gt; status  /* Статус записи: active | deleted | archived */: varchar(255)&lt;br/&gt; name  /* Наименование организации в системе */: varchar&lt;br/&gt; domain  /* Домен/namespace организации */: varchar&lt;br/&gt; verified  /* Признак верификации организации */: boolean&lt;/p&gt;&lt;hr size=&quot;1&quot;/&gt;&lt;p style=&quot;margin:0 0 0 4px;line-height:1.6;&quot;&gt; id  /* Первичный ключ */: integer&lt;/p&gt;" style="verticalAlign=top;align=left;overflow=fill;fontSize=14;fontFamily=Helvetica;html=1;rounded=0;shadow=0;comic=0;labelBackgroundColor=none;strokeWidth=1;">
      <mxGeometry x="8428" y="-193" width="697" height="271" as="geometry" />
    </mxCell>
    <mxCell id="node26" parent="1" vertex="1" value="&lt;p style=&quot;margin:0px;margin-top:4px;text-align:center;&quot;&gt;&lt;b&gt;payment_invoice_items  /* Позиции счета */&lt;/b&gt;&lt;/p&gt;&lt;hr size=&quot;1&quot;/&gt;&lt;p style=&quot;margin:0 0 0 4px;line-height:1.6;&quot;&gt; invoice_id  /* FK на payment_invoices */: integer&lt;br/&gt; name  /* Наименование позиции */: text&lt;br/&gt; quantity  /* Количество */: numeric(18,4)&lt;br/&gt; unit_price  /* Цена за единицу в минорных единицах */: bigint&lt;br/&gt; meta  /* Служебные поля (JSON) */: jsonb&lt;/p&gt;&lt;hr size=&quot;1&quot;/&gt;&lt;p style=&quot;margin:0 0 0 4px;line-height:1.6;&quot;&gt; id  /* Первичный ключ */: integer&lt;/p&gt;" style="verticalAlign=top;align=left;overflow=fill;fontSize=14;fontFamily=Helvetica;html=1;rounded=0;shadow=0;comic=0;labelBackgroundColor=none;strokeWidth=1;">
      <mxGeometry x="11496" y="575" width="481" height="215" as="geometry" />
    </mxCell>
    <mxCell id="node39" parent="1" vertex="1" value="&lt;p style=&quot;margin:0px;margin-top:4px;text-align:center;&quot;&gt;&lt;b&gt;payment_invoices  /* Счета на оплату (организация или пользователь). Используются ... */&lt;/b&gt;&lt;/p&gt;&lt;hr size=&quot;1&quot;/&gt;&lt;p style=&quot;margin:0 0 0 4px;line-height:1.6;&quot;&gt; created_at  /* Дата/время создания записи */: timestamp with time zone&lt;br/&gt; updated_at  /* Дата/время изменения записи */: timestamp with time zone&lt;br/&gt; deleted_at  /* Дата/время удаления (soft delete) */: timestamp with time zone&lt;br/&gt; status  /* Статус записи: active | deleted | archived */: varchar(255)&lt;br/&gt; organization_id  /* FK на organizations (счет на юр.лицо) */: integer&lt;br/&gt; user_id  /* FK на users (счет на физ.лицо) */: integer&lt;br/&gt; title  /* Заголовок счета */: text&lt;br/&gt; description  /* Описание счета */: text&lt;br/&gt; amount_total  /* Итоговая сумма в минорных единицах */: bigint&lt;br/&gt; currency  /* Буквенный код валюты (например, UZS, USD) */: text&lt;br/&gt; due_at  /* Срок оплаты */: timestamp with time zone&lt;br/&gt; meta  /* Служебные поля/JSON (может содержать ссылку на CCD) */: jsonb&lt;/p&gt;&lt;hr size=&quot;1&quot;/&gt;&lt;p style=&quot;margin:0 0 0 4px;line-height:1.6;&quot;&gt; id  /* Первичный ключ */: integer&lt;/p&gt;" style="verticalAlign=top;align=left;overflow=fill;fontSize=14;fontFamily=Helvetica;html=1;rounded=0;shadow=0;comic=0;labelBackgroundColor=none;strokeWidth=1;">
      <mxGeometry x="10711" y="477" width="731" height="411" as="geometry" />
    </mxCell>
    <mxCell id="node7" parent="1" vertex="1" value="&lt;p style=&quot;margin:0px;margin-top:4px;text-align:center;&quot;&gt;&lt;b&gt;payment_providers  /* Платежные провайдеры (Payme, Click и т.п.). Используются в пл... */&lt;/b&gt;&lt;/p&gt;&lt;hr size=&quot;1&quot;/&gt;&lt;p style=&quot;margin:0 0 0 4px;line-height:1.6;&quot;&gt; created_at  /* Дата/время создания записи */: timestamp with time zone&lt;br/&gt; updated_at  /* Дата/время изменения записи */: timestamp with time zone&lt;br/&gt; deleted_at  /* Дата/время удаления (soft delete) */: timestamp with time zone&lt;br/&gt; status  /* Статус записи: active | deleted | archived */: varchar(255)&lt;br/&gt; code  /* Системный код провайдера (уникальный) */: varchar&lt;br/&gt; display_name  /* Отображаемое имя провайдера */: text&lt;/p&gt;&lt;hr size=&quot;1&quot;/&gt;&lt;p style=&quot;margin:0 0 0 4px;line-height:1.6;&quot;&gt; id  /* Первичный ключ */: integer&lt;/p&gt;" style="verticalAlign=top;align=left;overflow=fill;fontSize=14;fontFamily=Helvetica;html=1;rounded=0;shadow=0;comic=0;labelBackgroundColor=none;strokeWidth=1;">
      <mxGeometry x="3549" y="1441" width="734" height="243" as="geometry" />
    </mxCell>
    <mxCell id="node35" parent="1" vertex="1" value="&lt;p style=&quot;margin:0px;margin-top:4px;text-align:center;&quot;&gt;&lt;b&gt;payment_sessions  /* Платежные сессии с провайдером (редирект/SDK). Используются д... */&lt;/b&gt;&lt;/p&gt;&lt;hr size=&quot;1&quot;/&gt;&lt;p style=&quot;margin:0 0 0 4px;line-height:1.6;&quot;&gt; provider_id  /* FK на payment_providers */: integer&lt;br/&gt; invoice_id  /* FK на payment_invoices (может быть NULL при предсоздании) */: integer&lt;br/&gt; user_id  /* FK на users (инициатор платежа-физлицо) */: integer&lt;br/&gt; organization_id  /* FK на organizations (инициатор-предприятие) */: integer&lt;br/&gt; amount  /* Сумма в минорных единицах */: bigint&lt;br/&gt; currency  /* Код валюты */: text&lt;br/&gt; client_reference  /* Внешний client/order ID */: text&lt;br/&gt; return_url  /* URL возврата после оплаты */: text&lt;br/&gt; status  /* Статус: created | processing | succeeded | failed | canceled */: text&lt;br/&gt; meta  /* Служебные поля провайдера/клиента (JSON) */: jsonb&lt;br/&gt; created_at  /* Дата/время создания */: timestamp with time zone&lt;br/&gt; updated_at  /* Дата/время обновления */: timestamp with time zone&lt;/p&gt;&lt;hr size=&quot;1&quot;/&gt;&lt;p style=&quot;margin:0 0 0 4px;line-height:1.6;&quot;&gt; id  /* Первичный ключ */: integer&lt;/p&gt;" style="verticalAlign=top;align=left;overflow=fill;fontSize=14;fontFamily=Helvetica;html=1;rounded=0;shadow=0;comic=0;labelBackgroundColor=none;strokeWidth=1;">
      <mxGeometry x="8400" y="937" width="752" height="411" as="geometry" />
    </mxCell>
    <mxCell id="node20" parent="1" vertex="1" value="&lt;p style=&quot;margin:0px;margin-top:4px;text-align:center;&quot;&gt;&lt;b&gt;payment_transactions  /* Факт транзакций оплаты (успешных/неуспешных). Используются дл... */&lt;/b&gt;&lt;/p&gt;&lt;hr size=&quot;1&quot;/&gt;&lt;p style=&quot;margin:0 0 0 4px;line-height:1.6;&quot;&gt; created_at  /* Дата/время создания записи */: timestamp with time zone&lt;br/&gt; updated_at  /* Дата/время изменения записи */: timestamp with time zone&lt;br/&gt; deleted_at  /* Дата/время удаления (soft delete) */: timestamp with time zone&lt;br/&gt; status  /* Статус записи: active | deleted | archived */: varchar(255)&lt;br/&gt; price_plan_id  /* FK на price_plans (если транзакция по тарифу) */: integer&lt;br/&gt; organization_id  /* FK на organizations */: integer&lt;br/&gt; user_id  /* FK на users */: integer&lt;br/&gt; provider_id  /* FK на payment_providers */: integer&lt;br/&gt; session_id  /* FK на payment_sessions */: integer&lt;br/&gt; invoice_id  /* FK на payment_invoices */: integer&lt;br/&gt; amount  /* Сумма в минорных единицах */: bigint&lt;br/&gt; currency  /* Код валюты */: text&lt;br/&gt; external_id  /* Идентификатор транзакции у провайдера */: text&lt;br/&gt; method  /* Метод оплаты (PAYME|CLICK|OTHER) */: text&lt;br/&gt; meta  /* Служебные поля/сырые payload (без ПД) */: jsonb&lt;/p&gt;&lt;hr size=&quot;1&quot;/&gt;&lt;p style=&quot;margin:0 0 0 4px;line-height:1.6;&quot;&gt; id  /* Первичный ключ */: integer&lt;/p&gt;" style="verticalAlign=top;align=left;overflow=fill;fontSize=14;fontFamily=Helvetica;html=1;rounded=0;shadow=0;comic=0;labelBackgroundColor=none;strokeWidth=1;">
      <mxGeometry x="3521" y="895" width="790" height="495" as="geometry" />
    </mxCell>
    <mxCell id="node8" parent="1" vertex="1" value="&lt;p style=&quot;margin:0px;margin-top:4px;text-align:center;&quot;&gt;&lt;b&gt;price_plans  /* Тарифные планы/квоты (токены, стоимость). Используются для би... */&lt;/b&gt;&lt;/p&gt;&lt;hr size=&quot;1&quot;/&gt;&lt;p style=&quot;margin:0 0 0 4px;line-height:1.6;&quot;&gt; created_at  /* Дата/время создания записи */: timestamp with time zone&lt;br/&gt; updated_at  /* Дата/время изменения записи */: timestamp with time zone&lt;br/&gt; deleted_at  /* Дата/время удаления (soft delete) */: timestamp with time zone&lt;br/&gt; status  /* Статус записи: active | deleted | archived */: varchar(255)&lt;br/&gt; type  /* Тип тарифа: individual | enterprise-per-user | enterprise */: varchar&lt;br/&gt; tokens  /* Лимит токенов/квота использования */: bigint&lt;br/&gt; price  /* Цена в минорных единицах указанной валюты */: integer&lt;br/&gt; codes_currency_id  /* FK на codes_currencies (валюта тарифа) */: integer&lt;/p&gt;&lt;hr size=&quot;1&quot;/&gt;&lt;p style=&quot;margin:0 0 0 4px;line-height:1.6;&quot;&gt; id  /* Первичный ключ */: integer&lt;/p&gt;" style="verticalAlign=top;align=left;overflow=fill;fontSize=14;fontFamily=Helvetica;html=1;rounded=0;shadow=0;comic=0;labelBackgroundColor=none;strokeWidth=1;">
      <mxGeometry x="4361" y="-1227" width="671" height="299" as="geometry" />
    </mxCell>
    <mxCell id="node15" parent="1" vertex="1" value="&lt;p style=&quot;margin:0px;margin-top:4px;text-align:center;&quot;&gt;&lt;b&gt;refunds  /* Возвраты по платежам */&lt;/b&gt;&lt;/p&gt;&lt;hr size=&quot;1&quot;/&gt;&lt;p style=&quot;margin:0 0 0 4px;line-height:1.6;&quot;&gt; transaction_id  /* FK на payment_transactions */: integer&lt;br/&gt; provider_id  /* FK на payment_providers */: integer&lt;br/&gt; amount  /* Сумма возврата (минорные единицы) */: bigint&lt;br/&gt; status  /* Статус: pending | succeeded | failed | canceled */: text&lt;br/&gt; provider_refund_id  /* ID возврата у провайдера */: text&lt;br/&gt; meta  /* Служебные поля (JSON) */: jsonb&lt;br/&gt; created_at  /* Дата/время создания записи */: timestamp with time zone&lt;/p&gt;&lt;hr size=&quot;1&quot;/&gt;&lt;p style=&quot;margin:0 0 0 4px;line-height:1.6;&quot;&gt; id  /* Первичный ключ */: integer&lt;/p&gt;" style="verticalAlign=top;align=left;overflow=fill;fontSize=14;fontFamily=Helvetica;html=1;rounded=0;shadow=0;comic=0;labelBackgroundColor=none;strokeWidth=1;">
      <mxGeometry x="2908" y="1007" width="576" height="271" as="geometry" />
    </mxCell>
    <mxCell id="node28" parent="1" vertex="1" value="&lt;p style=&quot;margin:0px;margin-top:4px;text-align:center;&quot;&gt;&lt;b&gt;roles  /* Роли доступа пользователей (RBAC). Не относится к графам ГТД */&lt;/b&gt;&lt;/p&gt;&lt;hr size=&quot;1&quot;/&gt;&lt;p style=&quot;margin:0 0 0 4px;line-height:1.6;&quot;&gt; created_at  /* Дата/время создания записи */: timestamp with time zone&lt;br/&gt; updated_at  /* Дата/время изменения записи */: timestamp with time zone&lt;br/&gt; deleted_at  /* Дата/время удаления (soft delete) */: timestamp with time zone&lt;br/&gt; status  /* Статус записи: active | deleted | archived */: varchar(255)&lt;br/&gt; name  /* Имя роли */: varchar&lt;/p&gt;&lt;hr size=&quot;1&quot;/&gt;&lt;p style=&quot;margin:0 0 0 4px;line-height:1.6;&quot;&gt; id  /* Первичный ключ */: integer&lt;/p&gt;" style="verticalAlign=top;align=left;overflow=fill;fontSize=14;fontFamily=Helvetica;html=1;rounded=0;shadow=0;comic=0;labelBackgroundColor=none;strokeWidth=1;">
      <mxGeometry x="10296" y="-798" width="609" height="215" as="geometry" />
    </mxCell>
    <mxCell id="node18" parent="1" vertex="1" value="&lt;p style=&quot;margin:0px;margin-top:4px;text-align:center;&quot;&gt;&lt;b&gt;users  /* Пользователи платформы. Используются как авторы деклараций, п... */&lt;/b&gt;&lt;/p&gt;&lt;hr size=&quot;1&quot;/&gt;&lt;p style=&quot;margin:0 0 0 4px;line-height:1.6;&quot;&gt; created_at  /* Дата/время создания записи */: timestamp with time zone&lt;br/&gt; updated_at  /* Дата/время изменения записи */: timestamp with time zone&lt;br/&gt; deleted_at  /* Дата/время удаления (soft delete) */: timestamp with time zone&lt;br/&gt; status  /* Статус записи: active | deleted | archived */: varchar(255)&lt;br/&gt; role_id  /* FK на roles (роль пользователя) */: integer&lt;br/&gt; organization_id  /* FK на organizations (принадлежность пользователя) */: integer&lt;br/&gt; first_name  /* Имя */: varchar&lt;br/&gt; last_name  /* Фамилия */: varchar&lt;br/&gt; middle_name  /* Отчество */: varchar&lt;br/&gt; email  /* Электронная почта */: varchar&lt;br/&gt; phone_number  /* Номер телефона */: varchar&lt;br/&gt; agreement  /* Согласие с условиями/офертой */: boolean&lt;/p&gt;&lt;hr size=&quot;1&quot;/&gt;&lt;p style=&quot;margin:0 0 0 4px;line-height:1.6;&quot;&gt; id  /* Первичный ключ */: integer&lt;/p&gt;" style="verticalAlign=top;align=left;overflow=fill;fontSize=14;fontFamily=Helvetica;html=1;rounded=0;shadow=0;comic=0;labelBackgroundColor=none;strokeWidth=1;">
      <mxGeometry x="9248" y="-1283" width="616" height="411" as="geometry" />
    </mxCell>
    <mxCell id="node23" parent="1" vertex="1" value="&lt;p style=&quot;margin:0px;margin-top:4px;text-align:center;&quot;&gt;&lt;b&gt;webhook_events  /* События вебхуков от провайдеров (сырые payloads) */&lt;/b&gt;&lt;/p&gt;&lt;hr size=&quot;1&quot;/&gt;&lt;p style=&quot;margin:0 0 0 4px;line-height:1.6;&quot;&gt; provider_id  /* FK на payment_providers */: integer&lt;br/&gt; event_type  /* Тип события */: text&lt;br/&gt; signature_ok  /* Проверка подписи вебхука пройдена */: boolean&lt;br/&gt; payload  /* Сырой JSON от провайдера */: jsonb&lt;br/&gt; received_at  /* Время получения */: timestamp with time zone&lt;br/&gt; processed_at  /* Время обработки */: timestamp with time zone&lt;/p&gt;&lt;hr size=&quot;1&quot;/&gt;&lt;p style=&quot;margin:0 0 0 4px;line-height:1.6;&quot;&gt; id  /* Первичный ключ */: bigint&lt;/p&gt;" style="verticalAlign=top;align=left;overflow=fill;fontSize=14;fontFamily=Helvetica;html=1;rounded=0;shadow=0;comic=0;labelBackgroundColor=none;strokeWidth=1;">
      <mxGeometry x="3608" y="1741" width="617" height="243" as="geometry" />
    </mxCell>
    <mxCell id="edge82" edge="1" value="" parent="1" source="node25" target="node24" style="html=1;rounded=1;edgeStyle=orthogonalEdgeStyle;dashed=0;startArrow=none;endArrow=block;endSize=12;strokeColor=#595959;exitX=0.009;exitY=0.000;exitDx=0;exitDy=0;entryX=0.500;entryY=0.000;entryDx=0;entryDy=0;">
      <mxGeometry width="50" height="50" relative="1" as="geometry">
        <Array as="points">
          <mxPoint x="8328" y="3986" />
          <mxPoint x="7956" y="3986" />
        </Array>
      </mxGeometry>
    </mxCell>
    <mxCell id="label494" parent="edge82" vertex="1" connectable="0" value="codes_hs_id:id" style="edgeLabel;resizable=0;html=1;align=left;verticalAlign=top;strokeColor=default;">
      <mxGeometry x="7973" y="3932" as="geometry" />
    </mxCell>
    <mxCell id="edge7" edge="1" value="" parent="1" source="node25" target="node40" style="html=1;rounded=1;edgeStyle=orthogonalEdgeStyle;dashed=0;startArrow=none;endArrow=block;endSize=12;strokeColor=#595959;exitX=0.500;exitY=0.000;exitDx=0;exitDy=0;entryX=0.500;entryY=1.000;entryDx=0;entryDy=0;">
      <mxGeometry width="50" height="50" relative="1" as="geometry">
        <Array as="points" />
      </mxGeometry>
    </mxCell>
    <mxCell id="label44" parent="edge7" vertex="1" connectable="0" value="codes_units_id:id" style="edgeLabel;resizable=0;html=1;align=left;verticalAlign=top;strokeColor=default;">
      <mxGeometry x="8716" y="3986" as="geometry" />
    </mxCell>
    <mxCell id="edge80" edge="1" value="" parent="1" source="node17" target="node31" style="html=1;rounded=1;edgeStyle=orthogonalEdgeStyle;dashed=0;startArrow=none;endArrow=block;endSize=12;strokeColor=#595959;exitX=0.017;exitY=1.000;exitDx=0;exitDy=0;entryX=0.000;entryY=0.500;entryDx=0;entryDy=0;">
      <mxGeometry width="50" height="50" relative="1" as="geometry">
        <Array as="points">
          <mxPoint x="8410" y="-58" />
        </Array>
      </mxGeometry>
    </mxCell>
    <mxCell id="label482" parent="edge80" vertex="1" connectable="0" value="organization_id:id" style="edgeLabel;resizable=0;html=1;align=left;verticalAlign=top;strokeColor=default;">
      <mxGeometry x="8364" y="-78" as="geometry" />
    </mxCell>
    <mxCell id="edge30" edge="1" value="" parent="1" source="node17" target="node18" style="html=1;rounded=1;edgeStyle=orthogonalEdgeStyle;dashed=0;startArrow=none;endArrow=block;endSize=12;strokeColor=#595959;exitX=0.983;exitY=1.000;exitDx=0;exitDy=0;entryX=1.000;entryY=0.464;entryDx=0;entryDy=0;">
      <mxGeometry width="50" height="50" relative="1" as="geometry">
        <Array as="points">
          <mxPoint x="9142" y="162" />
          <mxPoint x="10131" y="162" />
          <mxPoint x="10131" y="-1093" />
        </Array>
      </mxGeometry>
    </mxCell>
    <mxCell id="label182" parent="edge30" vertex="1" connectable="0" value="user_id:id" style="edgeLabel;resizable=0;html=1;align=left;verticalAlign=top;strokeColor=default;">
      <mxGeometry x="9937" y="123" as="geometry" />
    </mxCell>
    <mxCell id="edge26" edge="1" value="" parent="1" source="node9" target="node31" style="html=1;rounded=1;edgeStyle=orthogonalEdgeStyle;dashed=0;startArrow=none;endArrow=block;endSize=12;strokeColor=#595959;exitX=0.500;exitY=1.000;exitDx=0;exitDy=0;entryX=0.000;entryY=0.500;entryDx=0;entryDy=0;">
      <mxGeometry width="50" height="50" relative="1" as="geometry">
        <Array as="points">
          <mxPoint x="7556" y="-353" />
          <mxPoint x="7352" y="-353" />
          <mxPoint x="7352" y="240" />
          <mxPoint x="8410" y="240" />
          <mxPoint x="8410" y="-58" />
        </Array>
      </mxGeometry>
    </mxCell>
    <mxCell id="label158" parent="edge26" vertex="1" connectable="0" value="organization_id:id" style="edgeLabel;resizable=0;html=1;align=left;verticalAlign=top;strokeColor=default;">
      <mxGeometry x="7311" y="-66" as="geometry" />
    </mxCell>
    <mxCell id="edge91" edge="1" value="" parent="1" source="node9" target="node18" style="html=1;rounded=1;edgeStyle=orthogonalEdgeStyle;dashed=0;startArrow=none;endArrow=block;endSize=12;strokeColor=#595959;exitX=0.481;exitY=1.000;exitDx=0;exitDy=0;entryX=1.000;entryY=0.464;entryDx=0;entryDy=0;">
      <mxGeometry width="50" height="50" relative="1" as="geometry">
        <Array as="points">
          <mxPoint x="7541" y="162" />
          <mxPoint x="10131" y="162" />
          <mxPoint x="10131" y="-1093" />
        </Array>
      </mxGeometry>
    </mxCell>
    <mxCell id="label548" parent="edge91" vertex="1" connectable="0" value="user_id:id" style="edgeLabel;resizable=0;html=1;align=left;verticalAlign=top;strokeColor=default;">
      <mxGeometry x="9238" y="162" as="geometry" />
    </mxCell>
    <mxCell id="edge86" edge="1" value="" parent="1" source="node12" target="node31" style="html=1;rounded=1;edgeStyle=orthogonalEdgeStyle;dashed=0;startArrow=none;endArrow=block;endSize=12;strokeColor=#595959;exitX=0.000;exitY=0.500;exitDx=0;exitDy=0;entryX=0.000;entryY=0.500;entryDx=0;entryDy=0;">
      <mxGeometry width="50" height="50" relative="1" as="geometry">
        <Array as="points">
          <mxPoint x="7352" y="-338" />
          <mxPoint x="7352" y="240" />
          <mxPoint x="8410" y="240" />
          <mxPoint x="8410" y="-58" />
        </Array>
      </mxGeometry>
    </mxCell>
    <mxCell id="label518" parent="edge86" vertex="1" connectable="0" value="organization_id:id" style="edgeLabel;resizable=0;html=1;align=left;verticalAlign=top;strokeColor=default;">
      <mxGeometry x="7831" y="220" as="geometry" />
    </mxCell>
    <mxCell id="edge23" edge="1" value="" parent="1" source="node12" target="node18" style="html=1;rounded=1;edgeStyle=orthogonalEdgeStyle;dashed=0;startArrow=none;endArrow=block;endSize=12;strokeColor=#595959;exitX=0.500;exitY=1.000;exitDx=0;exitDy=0;entryX=1.000;entryY=0.464;entryDx=0;entryDy=0;">
      <mxGeometry width="50" height="50" relative="1" as="geometry">
        <Array as="points">
          <mxPoint x="7976" y="162" />
          <mxPoint x="10131" y="162" />
          <mxPoint x="10131" y="-1093" />
        </Array>
      </mxGeometry>
    </mxCell>
    <mxCell id="label140" parent="edge23" vertex="1" connectable="0" value="user_id:id" style="edgeLabel;resizable=0;html=1;align=left;verticalAlign=top;strokeColor=default;">
      <mxGeometry x="9742" y="162" as="geometry" />
    </mxCell>
    <mxCell id="edge9" edge="1" value="" parent="1" source="node21" target="node31" style="html=1;rounded=1;edgeStyle=orthogonalEdgeStyle;dashed=0;startArrow=none;endArrow=block;endSize=12;strokeColor=#595959;exitX=0.500;exitY=1.000;exitDx=0;exitDy=0;entryX=0.000;entryY=0.500;entryDx=0;entryDy=0;">
      <mxGeometry width="50" height="50" relative="1" as="geometry">
        <Array as="points">
          <mxPoint x="9556" y="240" />
          <mxPoint x="8410" y="240" />
          <mxPoint x="8410" y="-58" />
        </Array>
      </mxGeometry>
    </mxCell>
    <mxCell id="label56" parent="edge9" vertex="1" connectable="0" value="organization_id:id" style="edgeLabel;resizable=0;html=1;align=left;verticalAlign=top;strokeColor=default;">
      <mxGeometry x="8350" y="81" as="geometry" />
    </mxCell>
    <mxCell id="edge89" edge="1" value="" parent="1" source="node21" target="node18" style="html=1;rounded=1;edgeStyle=orthogonalEdgeStyle;dashed=0;startArrow=none;endArrow=block;endSize=12;strokeColor=#595959;exitX=0.480;exitY=1.000;exitDx=0;exitDy=0;entryX=1.000;entryY=0.464;entryDx=0;entryDy=0;">
      <mxGeometry width="50" height="50" relative="1" as="geometry">
        <Array as="points">
          <mxPoint x="9541" y="162" />
          <mxPoint x="10131" y="162" />
          <mxPoint x="10131" y="-1093" />
        </Array>
      </mxGeometry>
    </mxCell>
    <mxCell id="label536" parent="edge89" vertex="1" connectable="0" value="user_id:id" style="edgeLabel;resizable=0;html=1;align=left;verticalAlign=top;strokeColor=default;">
      <mxGeometry x="9905" y="162" as="geometry" />
    </mxCell>
    <mxCell id="edge42" edge="1" value="" parent="1" source="node6" target="node19" style="html=1;rounded=1;edgeStyle=orthogonalEdgeStyle;dashed=0;startArrow=none;endArrow=block;endSize=12;strokeColor=#595959;exitX=1.000;exitY=0.607;exitDx=0;exitDy=0;entryX=0.000;entryY=0.797;entryDx=0;entryDy=0;">
      <mxGeometry width="50" height="50" relative="1" as="geometry">
        <Array as="points" />
      </mxGeometry>
    </mxCell>
    <mxCell id="label254" parent="edge42" vertex="1" connectable="0" value="payer_bank_id:id" style="edgeLabel;resizable=0;html=1;align=left;verticalAlign=top;strokeColor=default;">
      <mxGeometry x="4911" y="3884" as="geometry" />
    </mxCell>
    <mxCell id="edge3" edge="1" value="" parent="1" source="node6" target="node34" style="html=1;rounded=1;edgeStyle=orthogonalEdgeStyle;dashed=0;startArrow=none;endArrow=block;endSize=12;strokeColor=#595959;exitX=1.000;exitY=0.613;exitDx=0;exitDy=0;entryX=0.500;entryY=0.000;entryDx=0;entryDy=0;">
      <mxGeometry width="50" height="50" relative="1" as="geometry">
        <Array as="points">
          <mxPoint x="5596" y="3958" />
        </Array>
      </mxGeometry>
    </mxCell>
    <mxCell id="label20" parent="edge3" vertex="1" connectable="0" value="dispatch_country_id:id" style="edgeLabel;resizable=0;html=1;align=left;verticalAlign=top;strokeColor=default;">
      <mxGeometry x="5542" y="4321" as="geometry" />
    </mxCell>
    <mxCell id="edge14" edge="1" value="" parent="1" source="node6" target="node34" style="html=1;rounded=1;edgeStyle=orthogonalEdgeStyle;dashed=0;startArrow=none;endArrow=block;endSize=12;strokeColor=#595959;exitX=0.308;exitY=1.000;exitDx=0;exitDy=0;entryX=0.500;entryY=1.000;entryDx=0;entryDy=0;">
      <mxGeometry width="50" height="50" relative="1" as="geometry">
        <Array as="points">
          <mxPoint x="3041" y="6497" />
          <mxPoint x="5596" y="6497" />
        </Array>
      </mxGeometry>
    </mxCell>
    <mxCell id="label86" parent="edge14" vertex="1" connectable="0" value="vehicle_reg_country_id:id" style="edgeLabel;resizable=0;html=1;align=left;verticalAlign=top;strokeColor=default;">
      <mxGeometry x="3481" y="6559" as="geometry" />
    </mxCell>
    <mxCell id="edge25" edge="1" value="" parent="1" source="node6" target="node34" style="html=1;rounded=1;edgeStyle=orthogonalEdgeStyle;dashed=0;startArrow=none;endArrow=block;endSize=12;strokeColor=#595959;exitX=0.286;exitY=1.000;exitDx=0;exitDy=0;entryX=0.523;entryY=1.000;entryDx=0;entryDy=0;">
      <mxGeometry width="50" height="50" relative="1" as="geometry">
        <Array as="points">
          <mxPoint x="3026" y="6512" />
          <mxPoint x="5611" y="6512" />
        </Array>
      </mxGeometry>
    </mxCell>
    <mxCell id="label152" parent="edge25" vertex="1" connectable="0" value="border_vehicle_reg_country_id:id" style="edgeLabel;resizable=0;html=1;align=left;verticalAlign=top;strokeColor=default;">
      <mxGeometry x="5508" y="5924" as="geometry" />
    </mxCell>
    <mxCell id="edge44" edge="1" value="" parent="1" source="node6" target="node34" style="html=1;rounded=1;edgeStyle=orthogonalEdgeStyle;dashed=0;startArrow=none;endArrow=block;endSize=12;strokeColor=#595959;exitX=1.000;exitY=0.640;exitDx=0;exitDy=0;entryX=0.247;entryY=0.000;entryDx=0;entryDy=0;">
      <mxGeometry width="50" height="50" relative="1" as="geometry">
        <Array as="points">
          <mxPoint x="5431" y="4028" />
        </Array>
      </mxGeometry>
    </mxCell>
    <mxCell id="label266" parent="edge44" vertex="1" connectable="0" value="trade_country_id:id" style="edgeLabel;resizable=0;html=1;align=left;verticalAlign=top;strokeColor=default;">
      <mxGeometry x="5386" y="4371" as="geometry" />
    </mxCell>
    <mxCell id="edge57" edge="1" value="" parent="1" source="node6" target="node34" style="html=1;rounded=1;edgeStyle=orthogonalEdgeStyle;dashed=0;startArrow=none;endArrow=block;endSize=12;strokeColor=#595959;exitX=1.000;exitY=0.618;exitDx=0;exitDy=0;entryX=0.477;entryY=0.000;entryDx=0;entryDy=0;">
      <mxGeometry width="50" height="50" relative="1" as="geometry">
        <Array as="points">
          <mxPoint x="5581" y="3973" />
        </Array>
      </mxGeometry>
    </mxCell>
    <mxCell id="label344" parent="edge57" vertex="1" connectable="0" value="destination_country_id:id" style="edgeLabel;resizable=0;html=1;align=left;verticalAlign=top;strokeColor=default;">
      <mxGeometry x="5440" y="4477" as="geometry" />
    </mxCell>
    <mxCell id="edge77" edge="1" value="" parent="1" source="node6" target="node34" style="html=1;rounded=1;edgeStyle=orthogonalEdgeStyle;dashed=0;startArrow=none;endArrow=block;endSize=12;strokeColor=#595959;exitX=1.000;exitY=0.624;exitDx=0;exitDy=0;entryX=0.454;entryY=0.000;entryDx=0;entryDy=0;">
      <mxGeometry width="50" height="50" relative="1" as="geometry">
        <Array as="points">
          <mxPoint x="5566" y="3988" />
        </Array>
      </mxGeometry>
    </mxCell>
    <mxCell id="label464" parent="edge77" vertex="1" connectable="0" value="transit_destination_country_id:id" style="edgeLabel;resizable=0;html=1;align=left;verticalAlign=top;strokeColor=default;">
      <mxGeometry x="5384" y="4613" as="geometry" />
    </mxCell>
    <mxCell id="edge50" edge="1" value="" parent="1" source="node6" target="node22" style="html=1;rounded=1;edgeStyle=orthogonalEdgeStyle;dashed=0;startArrow=none;endArrow=block;endSize=12;strokeColor=#595959;exitX=0.000;exitY=0.471;exitDx=0;exitDy=0;entryX=0.500;entryY=1.000;entryDx=0;entryDy=0;">
      <mxGeometry width="50" height="50" relative="1" as="geometry">
        <Array as="points">
          <mxPoint x="2316" y="3587" />
        </Array>
      </mxGeometry>
    </mxCell>
    <mxCell id="label302" parent="edge50" vertex="1" connectable="0" value="contract_currency_id:id" style="edgeLabel;resizable=0;html=1;align=left;verticalAlign=top;strokeColor=default;">
      <mxGeometry x="2186" y="2680" as="geometry" />
    </mxCell>
    <mxCell id="edge67" edge="1" value="" parent="1" source="node6" target="node22" style="html=1;rounded=1;edgeStyle=orthogonalEdgeStyle;dashed=0;startArrow=none;endArrow=block;endSize=12;strokeColor=#595959;exitX=0.000;exitY=0.466;exitDx=0;exitDy=0;entryX=0.523;entryY=1.000;entryDx=0;entryDy=0;">
      <mxGeometry width="50" height="50" relative="1" as="geometry">
        <Array as="points">
          <mxPoint x="2331" y="3572" />
        </Array>
      </mxGeometry>
    </mxCell>
    <mxCell id="label404" parent="edge67" vertex="1" connectable="0" value="settlement_currency_id:id" style="edgeLabel;resizable=0;html=1;align=left;verticalAlign=top;strokeColor=default;">
      <mxGeometry x="2186" y="2822" as="geometry" />
    </mxCell>
    <mxCell id="edge34" edge="1" value="" parent="1" source="node6" target="node10" style="html=1;rounded=1;edgeStyle=orthogonalEdgeStyle;dashed=0;startArrow=none;endArrow=block;endSize=12;strokeColor=#595959;exitX=1.000;exitY=0.372;exitDx=0;exitDy=0;entryX=1.000;entryY=0.500;entryDx=0;entryDy=0;">
      <mxGeometry width="50" height="50" relative="1" as="geometry">
        <Array as="points">
          <mxPoint x="7701" y="3326" />
          <mxPoint x="7701" y="3818" />
        </Array>
      </mxGeometry>
    </mxCell>
    <mxCell id="label206" parent="edge34" vertex="1" connectable="0" value="deal_type_id:id" style="edgeLabel;resizable=0;html=1;align=left;verticalAlign=top;strokeColor=default;">
      <mxGeometry x="7701" y="3562" as="geometry" />
    </mxCell>
    <mxCell id="edge8" edge="1" value="" parent="1" source="node6" target="node5" style="html=1;rounded=1;edgeStyle=orthogonalEdgeStyle;dashed=0;startArrow=none;endArrow=block;endSize=12;strokeColor=#595959;exitX=1.000;exitY=0.500;exitDx=0;exitDy=0;entryX=0.500;entryY=1.000;entryDx=0;entryDy=0;">
      <mxGeometry width="50" height="50" relative="1" as="geometry">
        <Array as="points">
          <mxPoint x="7334" y="3662" />
        </Array>
      </mxGeometry>
    </mxCell>
    <mxCell id="label50" parent="edge8" vertex="1" connectable="0" value="delivery_terms_id:id" style="edgeLabel;resizable=0;html=1;align=left;verticalAlign=top;strokeColor=default;">
      <mxGeometry x="7220" y="3650" as="geometry" />
    </mxCell>
    <mxCell id="edge39" edge="1" value="" parent="1" source="node6" target="node32" style="html=1;rounded=1;edgeStyle=orthogonalEdgeStyle;dashed=0;startArrow=none;endArrow=block;endSize=12;strokeColor=#595959;exitX=0.479;exitY=0.000;exitDx=0;exitDy=0;entryX=0.000;entryY=0.825;entryDx=0;entryDy=0;">
      <mxGeometry width="50" height="50" relative="1" as="geometry">
        <Array as="points">
          <mxPoint x="3161" y="2001" />
        </Array>
      </mxGeometry>
    </mxCell>
    <mxCell id="label236" parent="edge39" vertex="1" connectable="0" value="location_district_id:id" style="edgeLabel;resizable=0;html=1;align=left;verticalAlign=top;strokeColor=default;">
      <mxGeometry x="7122" y="2051" as="geometry" />
    </mxCell>
    <mxCell id="edge38" edge="1" value="" parent="1" source="node6" target="node16" style="html=1;rounded=1;edgeStyle=orthogonalEdgeStyle;dashed=0;startArrow=none;endArrow=block;endSize=12;strokeColor=#595959;exitX=1.000;exitY=0.393;exitDx=0;exitDy=0;entryX=0.000;entryY=0.129;entryDx=0;entryDy=0;">
      <mxGeometry width="50" height="50" relative="1" as="geometry">
        <Array as="points" />
      </mxGeometry>
    </mxCell>
    <mxCell id="label230" parent="edge38" vertex="1" connectable="0" value="form_id:id" style="edgeLabel;resizable=0;html=1;align=left;verticalAlign=top;strokeColor=default;">
      <mxGeometry x="4889" y="3342" as="geometry" />
    </mxCell>
    <mxCell id="edge62" edge="1" value="" parent="1" source="node6" target="node29" style="html=1;rounded=1;edgeStyle=orthogonalEdgeStyle;dashed=0;startArrow=none;endArrow=block;endSize=12;strokeColor=#595959;exitX=1.000;exitY=0.554;exitDx=0;exitDy=0;entryX=0.000;entryY=0.500;entryDx=0;entryDy=0;">
      <mxGeometry width="50" height="50" relative="1" as="geometry">
        <Array as="points" />
      </mxGeometry>
    </mxCell>
    <mxCell id="label374" parent="edge62" vertex="1" connectable="0" value="movement_type_id:id" style="edgeLabel;resizable=0;html=1;align=left;verticalAlign=top;strokeColor=default;">
      <mxGeometry x="4521" y="3733" as="geometry" />
    </mxCell>
    <mxCell id="edge49" edge="1" value="" parent="1" source="node6" target="node11" style="html=1;rounded=1;edgeStyle=orthogonalEdgeStyle;dashed=0;startArrow=none;endArrow=block;endSize=12;strokeColor=#595959;exitX=1.000;exitY=0.446;exitDx=0;exitDy=0;entryX=0.000;entryY=0.500;entryDx=0;entryDy=0;">
      <mxGeometry width="50" height="50" relative="1" as="geometry">
        <Array as="points" />
      </mxGeometry>
    </mxCell>
    <mxCell id="label296" parent="edge49" vertex="1" connectable="0" value="payment_form_id:id" style="edgeLabel;resizable=0;html=1;align=left;verticalAlign=top;strokeColor=default;">
      <mxGeometry x="4278" y="3501" as="geometry" />
    </mxCell>
    <mxCell id="edge12" edge="1" value="" parent="1" source="node6" target="node42" style="html=1;rounded=1;edgeStyle=orthogonalEdgeStyle;dashed=0;startArrow=none;endArrow=block;endSize=12;strokeColor=#595959;exitX=0.000;exitY=0.489;exitDx=0;exitDy=0;entryX=0.500;entryY=1.000;entryDx=0;entryDy=0;">
      <mxGeometry width="50" height="50" relative="1" as="geometry">
        <Array as="points">
          <mxPoint x="1236" y="3632" />
        </Array>
      </mxGeometry>
    </mxCell>
    <mxCell id="label74" parent="edge12" vertex="1" connectable="0" value="transit_customs_post_id:id" style="edgeLabel;resizable=0;html=1;align=left;verticalAlign=top;strokeColor=default;">
      <mxGeometry x="1082" y="2769" as="geometry" />
    </mxCell>
    <mxCell id="edge41" edge="1" value="" parent="1" source="node6" target="node42" style="html=1;rounded=1;edgeStyle=orthogonalEdgeStyle;dashed=0;startArrow=none;endArrow=block;endSize=12;strokeColor=#595959;exitX=0.000;exitY=0.483;exitDx=0;exitDy=0;entryX=0.523;entryY=1.000;entryDx=0;entryDy=0;">
      <mxGeometry width="50" height="50" relative="1" as="geometry">
        <Array as="points">
          <mxPoint x="1251" y="3617" />
        </Array>
      </mxGeometry>
    </mxCell>
    <mxCell id="label248" parent="edge41" vertex="1" connectable="0" value="post_id:id" style="edgeLabel;resizable=0;html=1;align=left;verticalAlign=top;strokeColor=default;">
      <mxGeometry x="1193" y="2593" as="geometry" />
    </mxCell>
    <mxCell id="edge87" edge="1" value="" parent="1" source="node6" target="node42" style="html=1;rounded=1;edgeStyle=orthogonalEdgeStyle;dashed=0;startArrow=none;endArrow=block;endSize=12;strokeColor=#595959;exitX=0.000;exitY=0.477;exitDx=0;exitDy=0;entryX=0.546;entryY=1.000;entryDx=0;entryDy=0;">
      <mxGeometry width="50" height="50" relative="1" as="geometry">
        <Array as="points">
          <mxPoint x="1266" y="3602" />
        </Array>
      </mxGeometry>
    </mxCell>
    <mxCell id="label524" parent="edge87" vertex="1" connectable="0" value="border_post_id:id" style="edgeLabel;resizable=0;html=1;align=left;verticalAlign=top;strokeColor=default;">
      <mxGeometry x="1165" y="2754" as="geometry" />
    </mxCell>
    <mxCell id="edge1" edge="1" value="" parent="1" source="node6" target="node0" style="html=1;rounded=1;edgeStyle=orthogonalEdgeStyle;dashed=0;startArrow=none;endArrow=block;endSize=12;strokeColor=#595959;exitX=0.500;exitY=1.000;exitDx=0;exitDy=0;entryX=0.000;entryY=0.500;entryDx=0;entryDy=0;">
      <mxGeometry width="50" height="50" relative="1" as="geometry">
        <Array as="points">
          <mxPoint x="3176" y="5222" />
        </Array>
      </mxGeometry>
    </mxCell>
    <mxCell id="label8" parent="edge1" vertex="1" connectable="0" value="transport_inside_country_id:id" style="edgeLabel;resizable=0;html=1;align=left;verticalAlign=top;strokeColor=default;">
      <mxGeometry x="3116" y="5167" as="geometry" />
    </mxCell>
    <mxCell id="edge11" edge="1" value="" parent="1" source="node6" target="node0" style="html=1;rounded=1;edgeStyle=orthogonalEdgeStyle;dashed=0;startArrow=none;endArrow=block;endSize=12;strokeColor=#595959;exitX=0.479;exitY=1.000;exitDx=0;exitDy=0;entryX=0.000;entryY=0.555;entryDx=0;entryDy=0;">
      <mxGeometry width="50" height="50" relative="1" as="geometry">
        <Array as="points">
          <mxPoint x="3161" y="5237" />
        </Array>
      </mxGeometry>
    </mxCell>
    <mxCell id="label68" parent="edge11" vertex="1" connectable="0" value="transport_at_border_id:id" style="edgeLabel;resizable=0;html=1;align=left;verticalAlign=top;strokeColor=default;">
      <mxGeometry x="3110" y="5186" as="geometry" />
    </mxCell>
    <mxCell id="edge51" edge="1" value="" parent="1" source="node6" target="node0" style="html=1;rounded=1;edgeStyle=orthogonalEdgeStyle;dashed=0;startArrow=none;endArrow=block;endSize=12;strokeColor=#595959;exitX=0.521;exitY=1.000;exitDx=0;exitDy=0;entryX=0.000;entryY=0.445;entryDx=0;entryDy=0;">
      <mxGeometry width="50" height="50" relative="1" as="geometry">
        <Array as="points">
          <mxPoint x="3191" y="5207" />
        </Array>
      </mxGeometry>
    </mxCell>
    <mxCell id="label308" parent="edge51" vertex="1" connectable="0" value="border_transport_type_id:id" style="edgeLabel;resizable=0;html=1;align=left;verticalAlign=top;strokeColor=default;">
      <mxGeometry x="3135" y="5155" as="geometry" />
    </mxCell>
    <mxCell id="edge58" edge="1" value="" parent="1" source="node6" target="node0" style="html=1;rounded=1;edgeStyle=orthogonalEdgeStyle;dashed=0;startArrow=none;endArrow=block;endSize=12;strokeColor=#595959;exitX=0.457;exitY=1.000;exitDx=0;exitDy=0;entryX=0.000;entryY=0.611;entryDx=0;entryDy=0;">
      <mxGeometry width="50" height="50" relative="1" as="geometry">
        <Array as="points">
          <mxPoint x="3146" y="5252" />
        </Array>
      </mxGeometry>
    </mxCell>
    <mxCell id="label350" parent="edge58" vertex="1" connectable="0" value="transport_main_type_id:id" style="edgeLabel;resizable=0;html=1;align=left;verticalAlign=top;strokeColor=default;">
      <mxGeometry x="3096" y="5201" as="geometry" />
    </mxCell>
    <mxCell id="edge5" edge="1" value="" parent="1" source="node6" target="node2" style="html=1;rounded=1;edgeStyle=orthogonalEdgeStyle;dashed=0;startArrow=none;endArrow=block;endSize=12;strokeColor=#595959;exitX=1.000;exitY=0.742;exitDx=0;exitDy=0;entryX=0.500;entryY=0.000;entryDx=0;entryDy=0;">
      <mxGeometry width="50" height="50" relative="1" as="geometry">
        <Array as="points">
          <mxPoint x="4836" y="4296" />
        </Array>
      </mxGeometry>
    </mxCell>
    <mxCell id="label32" parent="edge5" vertex="1" connectable="0" value="financial_individual_id:id" style="edgeLabel;resizable=0;html=1;align=left;verticalAlign=top;strokeColor=default;">
      <mxGeometry x="4836" y="4753" as="geometry" />
    </mxCell>
    <mxCell id="edge13" edge="1" value="" parent="1" source="node6" target="node2" style="html=1;rounded=1;edgeStyle=orthogonalEdgeStyle;dashed=0;startArrow=none;endArrow=block;endSize=12;strokeColor=#595959;exitX=1.000;exitY=0.747;exitDx=0;exitDy=0;entryX=0.481;entryY=0.000;entryDx=0;entryDy=0;">
      <mxGeometry width="50" height="50" relative="1" as="geometry">
        <Array as="points">
          <mxPoint x="4821" y="4311" />
        </Array>
      </mxGeometry>
    </mxCell>
    <mxCell id="label80" parent="edge13" vertex="1" connectable="0" value="consignee_individual_id:id" style="edgeLabel;resizable=0;html=1;align=left;verticalAlign=top;strokeColor=default;">
      <mxGeometry x="4821" y="4532" as="geometry" />
    </mxCell>
    <mxCell id="edge61" edge="1" value="" parent="1" source="node6" target="node2" style="html=1;rounded=1;edgeStyle=orthogonalEdgeStyle;dashed=0;startArrow=none;endArrow=block;endSize=12;strokeColor=#595959;exitX=1.000;exitY=0.753;exitDx=0;exitDy=0;entryX=0.461;entryY=0.000;entryDx=0;entryDy=0;">
      <mxGeometry width="50" height="50" relative="1" as="geometry">
        <Array as="points">
          <mxPoint x="4806" y="4326" />
        </Array>
      </mxGeometry>
    </mxCell>
    <mxCell id="label368" parent="edge61" vertex="1" connectable="0" value="declarant_individual_id:id" style="edgeLabel;resizable=0;html=1;align=left;verticalAlign=top;strokeColor=default;">
      <mxGeometry x="4806" y="4885" as="geometry" />
    </mxCell>
    <mxCell id="edge85" edge="1" value="" parent="1" source="node6" target="node2" style="html=1;rounded=1;edgeStyle=orthogonalEdgeStyle;dashed=0;startArrow=none;endArrow=block;endSize=12;strokeColor=#595959;exitX=1.000;exitY=0.759;exitDx=0;exitDy=0;entryX=0.442;entryY=0.000;entryDx=0;entryDy=0;">
      <mxGeometry width="50" height="50" relative="1" as="geometry">
        <Array as="points">
          <mxPoint x="4791" y="4341" />
        </Array>
      </mxGeometry>
    </mxCell>
    <mxCell id="label512" parent="edge85" vertex="1" connectable="0" value="carrier_individual_id:id" style="edgeLabel;resizable=0;html=1;align=left;verticalAlign=top;strokeColor=default;">
      <mxGeometry x="4791" y="5005" as="geometry" />
    </mxCell>
    <mxCell id="edge88" edge="1" value="" parent="1" source="node6" target="node2" style="html=1;rounded=1;edgeStyle=orthogonalEdgeStyle;dashed=0;startArrow=none;endArrow=block;endSize=12;strokeColor=#595959;exitX=1.000;exitY=0.765;exitDx=0;exitDy=0;entryX=0.423;entryY=0.000;entryDx=0;entryDy=0;">
      <mxGeometry width="50" height="50" relative="1" as="geometry">
        <Array as="points">
          <mxPoint x="4776" y="4356" />
        </Array>
      </mxGeometry>
    </mxCell>
    <mxCell id="label530" parent="edge88" vertex="1" connectable="0" value="payer_individual_id:id" style="edgeLabel;resizable=0;html=1;align=left;verticalAlign=top;strokeColor=default;">
      <mxGeometry x="4776" y="4789" as="geometry" />
    </mxCell>
    <mxCell id="edge93" edge="1" value="" parent="1" source="node6" target="node2" style="html=1;rounded=1;edgeStyle=orthogonalEdgeStyle;dashed=0;startArrow=none;endArrow=block;endSize=12;strokeColor=#595959;exitX=1.000;exitY=0.770;exitDx=0;exitDy=0;entryX=0.404;entryY=0.000;entryDx=0;entryDy=0;">
      <mxGeometry width="50" height="50" relative="1" as="geometry">
        <Array as="points">
          <mxPoint x="4761" y="4371" />
        </Array>
      </mxGeometry>
    </mxCell>
    <mxCell id="label560" parent="edge93" vertex="1" connectable="0" value="exporter_individual_id:id" style="edgeLabel;resizable=0;html=1;align=left;verticalAlign=top;strokeColor=default;">
      <mxGeometry x="4469" y="4329" as="geometry" />
    </mxCell>
    <mxCell id="edge17" edge="1" value="" parent="1" source="node6" target="node3" style="html=1;rounded=1;edgeStyle=orthogonalEdgeStyle;dashed=0;startArrow=none;endArrow=block;endSize=12;strokeColor=#595959;exitX=0.436;exitY=1.000;exitDx=0;exitDy=0;entryX=0.000;entryY=0.500;entryDx=0;entryDy=0;">
      <mxGeometry width="50" height="50" relative="1" as="geometry">
        <Array as="points">
          <mxPoint x="3131" y="6162" />
        </Array>
      </mxGeometry>
    </mxCell>
    <mxCell id="label104" parent="edge17" vertex="1" connectable="0" value="exporter_legal_id:id" style="edgeLabel;resizable=0;html=1;align=left;verticalAlign=top;strokeColor=default;">
      <mxGeometry x="3213" y="6208" as="geometry" />
    </mxCell>
    <mxCell id="edge18" edge="1" value="" parent="1" source="node6" target="node3" style="html=1;rounded=1;edgeStyle=orthogonalEdgeStyle;dashed=0;startArrow=none;endArrow=block;endSize=12;strokeColor=#595959;exitX=0.415;exitY=1.000;exitDx=0;exitDy=0;entryX=0.000;entryY=0.524;entryDx=0;entryDy=0;">
      <mxGeometry width="50" height="50" relative="1" as="geometry">
        <Array as="points">
          <mxPoint x="3116" y="6177" />
        </Array>
      </mxGeometry>
    </mxCell>
    <mxCell id="label110" parent="edge18" vertex="1" connectable="0" value="financial_legal_id:id" style="edgeLabel;resizable=0;html=1;align=left;verticalAlign=top;strokeColor=default;">
      <mxGeometry x="3201" y="6224" as="geometry" />
    </mxCell>
    <mxCell id="edge60" edge="1" value="" parent="1" source="node6" target="node3" style="html=1;rounded=1;edgeStyle=orthogonalEdgeStyle;dashed=0;startArrow=none;endArrow=block;endSize=12;strokeColor=#595959;exitX=0.393;exitY=1.000;exitDx=0;exitDy=0;entryX=0.000;entryY=0.547;entryDx=0;entryDy=0;">
      <mxGeometry width="50" height="50" relative="1" as="geometry">
        <Array as="points">
          <mxPoint x="3101" y="6192" />
        </Array>
      </mxGeometry>
    </mxCell>
    <mxCell id="label362" parent="edge60" vertex="1" connectable="0" value="payer_legal_id:id" style="edgeLabel;resizable=0;html=1;align=left;verticalAlign=top;strokeColor=default;">
      <mxGeometry x="3062" y="5429" as="geometry" />
    </mxCell>
    <mxCell id="edge70" edge="1" value="" parent="1" source="node6" target="node3" style="html=1;rounded=1;edgeStyle=orthogonalEdgeStyle;dashed=0;startArrow=none;endArrow=block;endSize=12;strokeColor=#595959;exitX=0.372;exitY=1.000;exitDx=0;exitDy=0;entryX=0.000;entryY=0.571;entryDx=0;entryDy=0;">
      <mxGeometry width="50" height="50" relative="1" as="geometry">
        <Array as="points">
          <mxPoint x="3086" y="6207" />
        </Array>
      </mxGeometry>
    </mxCell>
    <mxCell id="label422" parent="edge70" vertex="1" connectable="0" value="consignee_legal_id:id" style="edgeLabel;resizable=0;html=1;align=left;verticalAlign=top;strokeColor=default;">
      <mxGeometry x="3002" y="5942" as="geometry" />
    </mxCell>
    <mxCell id="edge74" edge="1" value="" parent="1" source="node6" target="node3" style="html=1;rounded=1;edgeStyle=orthogonalEdgeStyle;dashed=0;startArrow=none;endArrow=block;endSize=12;strokeColor=#595959;exitX=0.350;exitY=1.000;exitDx=0;exitDy=0;entryX=0.000;entryY=0.594;entryDx=0;entryDy=0;">
      <mxGeometry width="50" height="50" relative="1" as="geometry">
        <Array as="points">
          <mxPoint x="3071" y="6222" />
        </Array>
      </mxGeometry>
    </mxCell>
    <mxCell id="label446" parent="edge74" vertex="1" connectable="0" value="carrier_legal_id:id" style="edgeLabel;resizable=0;html=1;align=left;verticalAlign=top;strokeColor=default;">
      <mxGeometry x="3282" y="6264" as="geometry" />
    </mxCell>
    <mxCell id="edge76" edge="1" value="" parent="1" source="node6" target="node3" style="html=1;rounded=1;edgeStyle=orthogonalEdgeStyle;dashed=0;startArrow=none;endArrow=block;endSize=12;strokeColor=#595959;exitX=0.329;exitY=1.000;exitDx=0;exitDy=0;entryX=0.000;entryY=0.618;entryDx=0;entryDy=0;">
      <mxGeometry width="50" height="50" relative="1" as="geometry">
        <Array as="points">
          <mxPoint x="3056" y="6237" />
        </Array>
      </mxGeometry>
    </mxCell>
    <mxCell id="label458" parent="edge76" vertex="1" connectable="0" value="declarant_legal_id:id" style="edgeLabel;resizable=0;html=1;align=left;verticalAlign=top;strokeColor=default;">
      <mxGeometry x="3209" y="6287" as="geometry" />
    </mxCell>
    <mxCell id="edge55" edge="1" value="" parent="1" source="node6" target="node13" style="html=1;rounded=1;edgeStyle=orthogonalEdgeStyle;dashed=0;startArrow=none;endArrow=block;endSize=12;strokeColor=#595959;exitX=0.000;exitY=0.500;exitDx=0;exitDy=0;entryX=0.500;entryY=1.000;entryDx=0;entryDy=0;">
      <mxGeometry width="50" height="50" relative="1" as="geometry">
        <Array as="points">
          <mxPoint x="456" y="3662" />
        </Array>
      </mxGeometry>
    </mxCell>
    <mxCell id="label332" parent="edge55" vertex="1" connectable="0" value="consignee_legal_short_id:id" style="edgeLabel;resizable=0;html=1;align=left;verticalAlign=top;strokeColor=default;">
      <mxGeometry x="944" y="3630" as="geometry" />
    </mxCell>
    <mxCell id="edge56" edge="1" value="" parent="1" source="node6" target="node13" style="html=1;rounded=1;edgeStyle=orthogonalEdgeStyle;dashed=0;startArrow=none;endArrow=block;endSize=12;strokeColor=#595959;exitX=0.000;exitY=0.506;exitDx=0;exitDy=0;entryX=0.481;entryY=1.000;entryDx=0;entryDy=0;">
      <mxGeometry width="50" height="50" relative="1" as="geometry">
        <Array as="points">
          <mxPoint x="441" y="3677" />
        </Array>
      </mxGeometry>
    </mxCell>
    <mxCell id="label338" parent="edge56" vertex="1" connectable="0" value="declarant_legal_short_id:id" style="edgeLabel;resizable=0;html=1;align=left;verticalAlign=top;strokeColor=default;">
      <mxGeometry x="941" y="3641" as="geometry" />
    </mxCell>
    <mxCell id="edge63" edge="1" value="" parent="1" source="node6" target="node13" style="html=1;rounded=1;edgeStyle=orthogonalEdgeStyle;dashed=0;startArrow=none;endArrow=block;endSize=12;strokeColor=#595959;exitX=0.000;exitY=0.494;exitDx=0;exitDy=0;entryX=0.519;entryY=1.000;entryDx=0;entryDy=0;">
      <mxGeometry width="50" height="50" relative="1" as="geometry">
        <Array as="points">
          <mxPoint x="471" y="3647" />
        </Array>
      </mxGeometry>
    </mxCell>
    <mxCell id="label380" parent="edge63" vertex="1" connectable="0" value="financial_legal_short_id:id" style="edgeLabel;resizable=0;html=1;align=left;verticalAlign=top;strokeColor=default;">
      <mxGeometry x="855" y="3608" as="geometry" />
    </mxCell>
    <mxCell id="edge81" edge="1" value="" parent="1" source="node6" target="node13" style="html=1;rounded=1;edgeStyle=orthogonalEdgeStyle;dashed=0;startArrow=none;endArrow=block;endSize=12;strokeColor=#595959;exitX=0.000;exitY=0.511;exitDx=0;exitDy=0;entryX=0.463;entryY=1.000;entryDx=0;entryDy=0;">
      <mxGeometry width="50" height="50" relative="1" as="geometry">
        <Array as="points">
          <mxPoint x="426" y="3692" />
        </Array>
      </mxGeometry>
    </mxCell>
    <mxCell id="label488" parent="edge81" vertex="1" connectable="0" value="exporter_legal_short_id:id" style="edgeLabel;resizable=0;html=1;align=left;verticalAlign=top;strokeColor=default;">
      <mxGeometry x="839" y="3645" as="geometry" />
    </mxCell>
    <mxCell id="edge10" edge="1" value="" parent="1" source="node6" target="node37" style="html=1;rounded=1;edgeStyle=orthogonalEdgeStyle;dashed=0;startArrow=none;endArrow=block;endSize=12;strokeColor=#595959;exitX=0.000;exitY=0.517;exitDx=0;exitDy=0;entryX=0.500;entryY=1.000;entryDx=0;entryDy=0;">
      <mxGeometry width="50" height="50" relative="1" as="geometry">
        <Array as="points">
          <mxPoint x="-4" y="3707" />
        </Array>
      </mxGeometry>
    </mxCell>
    <mxCell id="label62" parent="edge10" vertex="1" connectable="0" value="consignee_partner_info_id:id" style="edgeLabel;resizable=0;html=1;align=left;verticalAlign=top;strokeColor=default;">
      <mxGeometry x="-4" y="3421" as="geometry" />
    </mxCell>
    <mxCell id="edge48" edge="1" value="" parent="1" source="node6" target="node37" style="html=1;rounded=1;edgeStyle=orthogonalEdgeStyle;dashed=0;startArrow=none;endArrow=block;endSize=12;strokeColor=#595959;exitX=0.000;exitY=0.523;exitDx=0;exitDy=0;entryX=0.481;entryY=1.000;entryDx=0;entryDy=0;">
      <mxGeometry width="50" height="50" relative="1" as="geometry">
        <Array as="points">
          <mxPoint x="-19" y="3722" />
        </Array>
      </mxGeometry>
    </mxCell>
    <mxCell id="label290" parent="edge48" vertex="1" connectable="0" value="financial_partner_info_id:id" style="edgeLabel;resizable=0;html=1;align=left;verticalAlign=top;strokeColor=default;">
      <mxGeometry x="1166" y="3674" as="geometry" />
    </mxCell>
    <mxCell id="edge69" edge="1" value="" parent="1" source="node6" target="node37" style="html=1;rounded=1;edgeStyle=orthogonalEdgeStyle;dashed=0;startArrow=none;endArrow=block;endSize=12;strokeColor=#595959;exitX=0.000;exitY=0.529;exitDx=0;exitDy=0;entryX=0.462;entryY=1.000;entryDx=0;entryDy=0;">
      <mxGeometry width="50" height="50" relative="1" as="geometry">
        <Array as="points">
          <mxPoint x="-34" y="3737" />
        </Array>
      </mxGeometry>
    </mxCell>
    <mxCell id="label416" parent="edge69" vertex="1" connectable="0" value="declarant_partner_info_id:id" style="edgeLabel;resizable=0;html=1;align=left;verticalAlign=top;strokeColor=default;">
      <mxGeometry x="-34" y="3445" as="geometry" />
    </mxCell>
    <mxCell id="edge83" edge="1" value="" parent="1" source="node6" target="node37" style="html=1;rounded=1;edgeStyle=orthogonalEdgeStyle;dashed=0;startArrow=none;endArrow=block;endSize=12;strokeColor=#595959;exitX=0.000;exitY=0.534;exitDx=0;exitDy=0;entryX=0.444;entryY=1.000;entryDx=0;entryDy=0;">
      <mxGeometry width="50" height="50" relative="1" as="geometry">
        <Array as="points">
          <mxPoint x="-49" y="3752" />
        </Array>
      </mxGeometry>
    </mxCell>
    <mxCell id="label500" parent="edge83" vertex="1" connectable="0" value="exporter_partner_info_id:id" style="edgeLabel;resizable=0;html=1;align=left;verticalAlign=top;strokeColor=default;">
      <mxGeometry x="-134" y="3486" as="geometry" />
    </mxCell>
    <mxCell id="edge16" edge="1" value="" parent="1" source="node6" target="node31" style="html=1;rounded=1;edgeStyle=orthogonalEdgeStyle;dashed=0;startArrow=none;endArrow=block;endSize=12;strokeColor=#595959;exitX=0.093;exitY=0.000;exitDx=0;exitDy=0;entryX=0.000;entryY=0.500;entryDx=0;entryDy=0;">
      <mxGeometry width="50" height="50" relative="1" as="geometry">
        <Array as="points">
          <mxPoint x="2891" y="666" />
          <mxPoint x="8336" y="666" />
          <mxPoint x="8336" y="240" />
          <mxPoint x="8410" y="240" />
          <mxPoint x="8410" y="-58" />
        </Array>
      </mxGeometry>
    </mxCell>
    <mxCell id="label98" parent="edge16" vertex="1" connectable="0" value="organization_id:id" style="edgeLabel;resizable=0;html=1;align=left;verticalAlign=top;strokeColor=default;">
      <mxGeometry x="8276" y="443" as="geometry" />
    </mxCell>
    <mxCell id="edge15" edge="1" value="" parent="1" source="node6" target="node18" style="html=1;rounded=1;edgeStyle=orthogonalEdgeStyle;dashed=0;startArrow=none;endArrow=block;endSize=12;strokeColor=#595959;exitX=0.051;exitY=0.000;exitDx=0;exitDy=0;entryX=0.500;entryY=0.000;entryDx=0;entryDy=0;">
      <mxGeometry width="50" height="50" relative="1" as="geometry">
        <Array as="points">
          <mxPoint x="2861" y="-1344" />
          <mxPoint x="9556" y="-1344" />
        </Array>
      </mxGeometry>
    </mxCell>
    <mxCell id="label92" parent="edge15" vertex="1" connectable="0" value="created_by_user_id:id" style="edgeLabel;resizable=0;html=1;align=left;verticalAlign=top;strokeColor=default;">
      <mxGeometry x="5476" y="-1417" as="geometry" />
    </mxCell>
    <mxCell id="edge32" edge="1" value="" parent="1" source="node1" target="node6" style="html=1;rounded=1;edgeStyle=orthogonalEdgeStyle;dashed=0;startArrow=none;endArrow=block;endSize=12;strokeColor=#595959;exitX=0.000;exitY=0.500;exitDx=0;exitDy=0;entryX=0.500;entryY=0.000;entryDx=0;entryDy=0;">
      <mxGeometry width="50" height="50" relative="1" as="geometry">
        <Array as="points">
          <mxPoint x="6993" y="2882" />
          <mxPoint x="6993" y="2200" />
          <mxPoint x="3176" y="2200" />
        </Array>
      </mxGeometry>
    </mxCell>
    <mxCell id="label194" parent="edge32" vertex="1" connectable="0" value="document_id:id" style="edgeLabel;resizable=0;html=1;align=left;verticalAlign=top;strokeColor=default;">
      <mxGeometry x="7443" y="2882" as="geometry" />
    </mxCell>
    <mxCell id="edge65" edge="1" value="" parent="1" source="node1" target="node34" style="html=1;rounded=1;edgeStyle=orthogonalEdgeStyle;dashed=0;startArrow=none;endArrow=block;endSize=12;strokeColor=#595959;exitX=1.000;exitY=0.509;exitDx=0;exitDy=0;entryX=1.000;entryY=0.965;entryDx=0;entryDy=0;">
      <mxGeometry width="50" height="50" relative="1" as="geometry">
        <Array as="points">
          <mxPoint x="12024" y="2897" />
          <mxPoint x="12024" y="5561" />
        </Array>
      </mxGeometry>
    </mxCell>
    <mxCell id="label392" parent="edge65" vertex="1" connectable="0" value="origin_country_id:id" style="edgeLabel;resizable=0;html=1;align=left;verticalAlign=top;strokeColor=default;">
      <mxGeometry x="8949" y="5561" as="geometry" />
    </mxCell>
    <mxCell id="edge35" edge="1" value="" parent="1" source="node1" target="node32" style="html=1;rounded=1;edgeStyle=orthogonalEdgeStyle;dashed=0;startArrow=none;endArrow=block;endSize=12;strokeColor=#595959;exitX=0.500;exitY=0.000;exitDx=0;exitDy=0;entryX=0.500;entryY=1.000;entryDx=0;entryDy=0;">
      <mxGeometry width="50" height="50" relative="1" as="geometry">
        <Array as="points" />
      </mxGeometry>
    </mxCell>
    <mxCell id="label212" parent="edge35" vertex="1" connectable="0" value="producer_district_id:id" style="edgeLabel;resizable=0;html=1;align=left;verticalAlign=top;strokeColor=default;">
      <mxGeometry x="7883" y="2056" as="geometry" />
    </mxCell>
    <mxCell id="edge54" edge="1" value="" parent="1" source="node1" target="node32" style="html=1;rounded=1;edgeStyle=orthogonalEdgeStyle;dashed=0;startArrow=none;endArrow=block;endSize=12;strokeColor=#595959;exitX=0.536;exitY=0.000;exitDx=0;exitDy=0;entryX=0.523;entryY=1.000;entryDx=0;entryDy=0;">
      <mxGeometry width="50" height="50" relative="1" as="geometry">
        <Array as="points" />
      </mxGeometry>
    </mxCell>
    <mxCell id="label326" parent="edge54" vertex="1" connectable="0" value="consumer_district_id:id" style="edgeLabel;resizable=0;html=1;align=left;verticalAlign=top;strokeColor=default;">
      <mxGeometry x="7895" y="2056" as="geometry" />
    </mxCell>
    <mxCell id="edge78" edge="1" value="" parent="1" source="node1" target="node24" style="html=1;rounded=1;edgeStyle=orthogonalEdgeStyle;dashed=0;startArrow=none;endArrow=block;endSize=12;strokeColor=#595959;exitX=0.500;exitY=1.000;exitDx=0;exitDy=0;entryX=0.500;entryY=0.000;entryDx=0;entryDy=0;">
      <mxGeometry width="50" height="50" relative="1" as="geometry">
        <Array as="points" />
      </mxGeometry>
    </mxCell>
    <mxCell id="label470" parent="edge78" vertex="1" connectable="0" value="codes_hs_id:id" style="edgeLabel;resizable=0;html=1;align=left;verticalAlign=top;strokeColor=default;">
      <mxGeometry x="7921" y="3784" as="geometry" />
    </mxCell>
    <mxCell id="edge37" edge="1" value="" parent="1" source="node1" target="node40" style="html=1;rounded=1;edgeStyle=orthogonalEdgeStyle;dashed=0;startArrow=none;endArrow=block;endSize=12;strokeColor=#595959;exitX=0.536;exitY=1.000;exitDx=0;exitDy=0;entryX=0.000;entryY=0.500;entryDx=0;entryDy=0;">
      <mxGeometry width="50" height="50" relative="1" as="geometry">
        <Array as="points">
          <mxPoint x="7971" y="3842" />
        </Array>
      </mxGeometry>
    </mxCell>
    <mxCell id="label224" parent="edge37" vertex="1" connectable="0" value="additional_unit_id:id" style="edgeLabel;resizable=0;html=1;align=left;verticalAlign=top;strokeColor=default;">
      <mxGeometry x="8091" y="3775" as="geometry" />
    </mxCell>
    <mxCell id="edge43" edge="1" value="" parent="1" source="node1" target="node40" style="html=1;rounded=1;edgeStyle=orthogonalEdgeStyle;dashed=0;startArrow=none;endArrow=block;endSize=12;strokeColor=#595959;exitX=1.000;exitY=0.519;exitDx=0;exitDy=0;entryX=0.500;entryY=0.000;entryDx=0;entryDy=0;">
      <mxGeometry width="50" height="50" relative="1" as="geometry">
        <Array as="points">
          <mxPoint x="8716" y="2912" />
        </Array>
      </mxGeometry>
    </mxCell>
    <mxCell id="label260" parent="edge43" vertex="1" connectable="0" value="quota_unit_id:id" style="edgeLabel;resizable=0;html=1;align=left;verticalAlign=top;strokeColor=default;">
      <mxGeometry x="8716" y="3136" as="geometry" />
    </mxCell>
    <mxCell id="edge79" edge="1" value="" parent="1" source="node1" target="node27" style="html=1;rounded=1;edgeStyle=orthogonalEdgeStyle;dashed=0;startArrow=none;endArrow=block;endSize=12;strokeColor=#595959;exitX=1.000;exitY=0.500;exitDx=0;exitDy=0;entryX=0.475;entryY=0.000;entryDx=0;entryDy=0;">
      <mxGeometry width="50" height="50" relative="1" as="geometry">
        <Array as="points">
          <mxPoint x="12009" y="2882" />
          <mxPoint x="12009" y="-1329" />
          <mxPoint x="6801" y="-1329" />
        </Array>
      </mxGeometry>
    </mxCell>
    <mxCell id="label476" parent="edge79" vertex="1" connectable="0" value="source_invoice_file_id:id" style="edgeLabel;resizable=0;html=1;align=left;verticalAlign=top;strokeColor=default;">
      <mxGeometry x="11869" y="-497" as="geometry" />
    </mxCell>
    <mxCell id="edge21" edge="1" value="" parent="1" source="node41" target="node22" style="html=1;rounded=1;edgeStyle=orthogonalEdgeStyle;dashed=0;startArrow=none;endArrow=block;endSize=12;strokeColor=#595959;exitX=1.000;exitY=0.500;exitDx=0;exitDy=0;entryX=0.000;entryY=0.500;entryDx=0;entryDy=0;">
      <mxGeometry width="50" height="50" relative="1" as="geometry">
        <Array as="points" />
      </mxGeometry>
    </mxCell>
    <mxCell id="label128" parent="edge21" vertex="1" connectable="0" value="codes_currency_id:id" style="edgeLabel;resizable=0;html=1;align=left;verticalAlign=top;strokeColor=default;">
      <mxGeometry x="1908" y="1872" as="geometry" />
    </mxCell>
    <mxCell id="edge36" edge="1" value="" parent="1" source="node4" target="node34" style="html=1;rounded=1;edgeStyle=orthogonalEdgeStyle;dashed=0;startArrow=none;endArrow=block;endSize=12;strokeColor=#595959;exitX=0.000;exitY=0.500;exitDx=0;exitDy=0;entryX=1.000;entryY=0.500;entryDx=0;entryDy=0;">
      <mxGeometry width="50" height="50" relative="1" as="geometry">
        <Array as="points" />
      </mxGeometry>
    </mxCell>
    <mxCell id="label218" parent="edge36" vertex="1" connectable="0" value="codes_country_id:id" style="edgeLabel;resizable=0;html=1;align=left;verticalAlign=top;strokeColor=default;">
      <mxGeometry x="5883" y="5422" as="geometry" />
    </mxCell>
    <mxCell id="edge29" edge="1" value="" parent="1" source="node27" target="node31" style="html=1;rounded=1;edgeStyle=orthogonalEdgeStyle;dashed=0;startArrow=none;endArrow=block;endSize=12;strokeColor=#595959;exitX=1.000;exitY=0.593;exitDx=0;exitDy=0;entryX=0.000;entryY=0.500;entryDx=0;entryDy=0;">
      <mxGeometry width="50" height="50" relative="1" as="geometry">
        <Array as="points">
          <mxPoint x="7352" y="-489" />
          <mxPoint x="7352" y="240" />
          <mxPoint x="8410" y="240" />
          <mxPoint x="8410" y="-58" />
        </Array>
      </mxGeometry>
    </mxCell>
    <mxCell id="label176" parent="edge29" vertex="1" connectable="0" value="organization_id:id" style="edgeLabel;resizable=0;html=1;align=left;verticalAlign=top;strokeColor=default;">
      <mxGeometry x="7831" y="220" as="geometry" />
    </mxCell>
    <mxCell id="edge24" edge="1" value="" parent="1" source="node27" target="node18" style="html=1;rounded=1;edgeStyle=orthogonalEdgeStyle;dashed=0;startArrow=none;endArrow=block;endSize=12;strokeColor=#595959;exitX=0.500;exitY=0.000;exitDx=0;exitDy=0;entryX=0.000;entryY=0.500;entryDx=0;entryDy=0;">
      <mxGeometry width="50" height="50" relative="1" as="geometry">
        <Array as="points">
          <mxPoint x="6816" y="-1078" />
        </Array>
      </mxGeometry>
    </mxCell>
    <mxCell id="label146" parent="edge24" vertex="1" connectable="0" value="uploaded_by:id" style="edgeLabel;resizable=0;html=1;align=left;verticalAlign=top;strokeColor=default;">
      <mxGeometry x="7725" y="-1132" as="geometry" />
    </mxCell>
    <mxCell id="edge59" edge="1" value="" parent="1" source="node14" target="node18" style="html=1;rounded=1;edgeStyle=orthogonalEdgeStyle;dashed=0;startArrow=none;endArrow=block;endSize=12;strokeColor=#595959;exitX=0.000;exitY=0.500;exitDx=0;exitDy=0;entryX=1.000;entryY=0.464;entryDx=0;entryDy=0;">
      <mxGeometry width="50" height="50" relative="1" as="geometry">
        <Array as="points">
          <mxPoint x="10131" y="-358" />
          <mxPoint x="10131" y="-1093" />
        </Array>
      </mxGeometry>
    </mxCell>
    <mxCell id="label356" parent="edge59" vertex="1" connectable="0" value="user_id:id" style="edgeLabel;resizable=0;html=1;align=left;verticalAlign=top;strokeColor=default;">
      <mxGeometry x="10072" y="-858" as="geometry" />
    </mxCell>
    <mxCell id="edge2" edge="1" value="" parent="1" source="node30" target="node18" style="html=1;rounded=1;edgeStyle=orthogonalEdgeStyle;dashed=0;startArrow=none;endArrow=block;endSize=12;strokeColor=#595959;exitX=0.500;exitY=1.000;exitDx=0;exitDy=0;entryX=1.000;entryY=0.464;entryDx=0;entryDy=0;">
      <mxGeometry width="50" height="50" relative="1" as="geometry">
        <Array as="points">
          <mxPoint x="10629" y="420" />
          <mxPoint x="10131" y="420" />
          <mxPoint x="10131" y="-1093" />
        </Array>
      </mxGeometry>
    </mxCell>
    <mxCell id="label14" parent="edge2" vertex="1" connectable="0" value="user_id:id" style="edgeLabel;resizable=0;html=1;align=left;verticalAlign=top;strokeColor=default;">
      <mxGeometry x="10185" y="381" as="geometry" />
    </mxCell>
    <mxCell id="edge40" edge="1" value="" parent="1" source="node33" target="node6" style="html=1;rounded=1;edgeStyle=orthogonalEdgeStyle;dashed=0;startArrow=none;endArrow=block;endSize=12;strokeColor=#595959;exitX=0.000;exitY=0.500;exitDx=0;exitDy=0;entryX=0.500;entryY=0.000;entryDx=0;entryDy=0;">
      <mxGeometry width="50" height="50" relative="1" as="geometry">
        <Array as="points">
          <mxPoint x="2876" y="-538" />
          <mxPoint x="2876" y="2200" />
          <mxPoint x="3176" y="2200" />
        </Array>
      </mxGeometry>
    </mxCell>
    <mxCell id="label242" parent="edge40" vertex="1" connectable="0" value="document_id:id" style="edgeLabel;resizable=0;html=1;align=left;verticalAlign=top;strokeColor=default;">
      <mxGeometry x="2787" y="1734" as="geometry" />
    </mxCell>
    <mxCell id="edge53" edge="1" value="" parent="1" source="node33" target="node27" style="html=1;rounded=1;edgeStyle=orthogonalEdgeStyle;dashed=0;startArrow=none;endArrow=block;endSize=12;strokeColor=#595959;exitX=1.000;exitY=0.500;exitDx=0;exitDy=0;entryX=0.000;entryY=0.500;entryDx=0;entryDy=0;">
      <mxGeometry width="50" height="50" relative="1" as="geometry">
        <Array as="points" />
      </mxGeometry>
    </mxCell>
    <mxCell id="label320" parent="edge53" vertex="1" connectable="0" value="input_file_id:id" style="edgeLabel;resizable=0;html=1;align=left;verticalAlign=top;strokeColor=default;">
      <mxGeometry x="6450" y="-558" as="geometry" />
    </mxCell>
    <mxCell id="edge0" edge="1" value="" parent="1" source="node33" target="node31" style="html=1;rounded=1;edgeStyle=orthogonalEdgeStyle;dashed=0;startArrow=none;endArrow=block;endSize=12;strokeColor=#595959;exitX=0.500;exitY=1.000;exitDx=0;exitDy=0;entryX=0.000;entryY=0.500;entryDx=0;entryDy=0;">
      <mxGeometry width="50" height="50" relative="1" as="geometry">
        <Array as="points">
          <mxPoint x="6156" y="240" />
          <mxPoint x="8410" y="240" />
          <mxPoint x="8410" y="-58" />
        </Array>
      </mxGeometry>
    </mxCell>
    <mxCell id="label2" parent="edge0" vertex="1" connectable="0" value="organization_id:id" style="edgeLabel;resizable=0;html=1;align=left;verticalAlign=top;strokeColor=default;">
      <mxGeometry x="8364" y="-118" as="geometry" />
    </mxCell>
    <mxCell id="edge19" edge="1" value="" parent="1" source="node33" target="node18" style="html=1;rounded=1;edgeStyle=orthogonalEdgeStyle;dashed=0;startArrow=none;endArrow=block;endSize=12;strokeColor=#595959;exitX=0.476;exitY=1.000;exitDx=0;exitDy=0;entryX=1.000;entryY=0.464;entryDx=0;entryDy=0;">
      <mxGeometry width="50" height="50" relative="1" as="geometry">
        <Array as="points">
          <mxPoint x="6141" y="162" />
          <mxPoint x="10131" y="162" />
          <mxPoint x="10131" y="-1093" />
        </Array>
      </mxGeometry>
    </mxCell>
    <mxCell id="label116" parent="edge19" vertex="1" connectable="0" value="user_id:id" style="edgeLabel;resizable=0;html=1;align=left;verticalAlign=top;strokeColor=default;">
      <mxGeometry x="10082" y="-1089" as="geometry" />
    </mxCell>
    <mxCell id="edge46" edge="1" value="" parent="1" source="node36" target="node31" style="html=1;rounded=1;edgeStyle=orthogonalEdgeStyle;dashed=0;startArrow=none;endArrow=block;endSize=12;strokeColor=#595959;exitX=0.500;exitY=1.000;exitDx=0;exitDy=0;entryX=0.000;entryY=0.500;entryDx=0;entryDy=0;">
      <mxGeometry width="50" height="50" relative="1" as="geometry">
        <Array as="points">
          <mxPoint x="5436" y="240" />
          <mxPoint x="8410" y="240" />
          <mxPoint x="8410" y="-58" />
        </Array>
      </mxGeometry>
    </mxCell>
    <mxCell id="label278" parent="edge46" vertex="1" connectable="0" value="organization_id:id" style="edgeLabel;resizable=0;html=1;align=left;verticalAlign=top;strokeColor=default;">
      <mxGeometry x="8364" y="-118" as="geometry" />
    </mxCell>
    <mxCell id="edge75" edge="1" value="" parent="1" source="node36" target="node8" style="html=1;rounded=1;edgeStyle=orthogonalEdgeStyle;dashed=0;startArrow=none;endArrow=block;endSize=12;strokeColor=#595959;exitX=0.000;exitY=0.142;exitDx=0;exitDy=0;entryX=0.000;entryY=0.450;entryDx=0;entryDy=0;">
      <mxGeometry width="50" height="50" relative="1" as="geometry">
        <Array as="points">
          <mxPoint x="4336" y="-1245" />
          <mxPoint x="4336" y="-1093" />
        </Array>
      </mxGeometry>
    </mxCell>
    <mxCell id="label452" parent="edge75" vertex="1" connectable="0" value="price_plan_id:id" style="edgeLabel;resizable=0;html=1;align=left;verticalAlign=top;strokeColor=default;">
      <mxGeometry x="4296" y="-1113" as="geometry" />
    </mxCell>
    <mxCell id="edge68" edge="1" value="" parent="1" source="node36" target="node18" style="html=1;rounded=1;edgeStyle=orthogonalEdgeStyle;dashed=0;startArrow=none;endArrow=block;endSize=12;strokeColor=#595959;exitX=0.480;exitY=1.000;exitDx=0;exitDy=0;entryX=1.000;entryY=0.464;entryDx=0;entryDy=0;">
      <mxGeometry width="50" height="50" relative="1" as="geometry">
        <Array as="points">
          <mxPoint x="5421" y="162" />
          <mxPoint x="10131" y="162" />
          <mxPoint x="10131" y="-1093" />
        </Array>
      </mxGeometry>
    </mxCell>
    <mxCell id="label410" parent="edge68" vertex="1" connectable="0" value="user_id:id" style="edgeLabel;resizable=0;html=1;align=left;verticalAlign=top;strokeColor=default;">
      <mxGeometry x="10092" y="-475" as="geometry" />
    </mxCell>
    <mxCell id="edge52" edge="1" value="" parent="1" source="node26" target="node39" style="html=1;rounded=1;edgeStyle=orthogonalEdgeStyle;dashed=0;startArrow=none;endArrow=block;endSize=12;strokeColor=#595959;exitX=0.500;exitY=1.000;exitDx=0;exitDy=0;entryX=0.500;entryY=1.000;entryDx=0;entryDy=0;">
      <mxGeometry width="50" height="50" relative="1" as="geometry">
        <Array as="points">
          <mxPoint x="11736" y="912" />
          <mxPoint x="11076" y="912" />
        </Array>
      </mxGeometry>
    </mxCell>
    <mxCell id="label314" parent="edge52" vertex="1" connectable="0" value="invoice_id:id" style="edgeLabel;resizable=0;html=1;align=left;verticalAlign=top;strokeColor=default;">
      <mxGeometry x="11004" y="895" as="geometry" />
    </mxCell>
    <mxCell id="edge6" edge="1" value="" parent="1" source="node39" target="node31" style="html=1;rounded=1;edgeStyle=orthogonalEdgeStyle;dashed=0;startArrow=none;endArrow=block;endSize=12;strokeColor=#595959;exitX=0.000;exitY=0.509;exitDx=0;exitDy=0;entryX=0.000;entryY=0.500;entryDx=0;entryDy=0;">
      <mxGeometry width="50" height="50" relative="1" as="geometry">
        <Array as="points">
          <mxPoint x="9970" y="686" />
          <mxPoint x="9970" y="666" />
          <mxPoint x="8336" y="666" />
          <mxPoint x="8336" y="240" />
          <mxPoint x="8410" y="240" />
          <mxPoint x="8410" y="-58" />
        </Array>
      </mxGeometry>
    </mxCell>
    <mxCell id="label38" parent="edge6" vertex="1" connectable="0" value="organization_id:id" style="edgeLabel;resizable=0;html=1;align=left;verticalAlign=top;strokeColor=default;">
      <mxGeometry x="9103" y="666" as="geometry" />
    </mxCell>
    <mxCell id="edge45" edge="1" value="" parent="1" source="node39" target="node18" style="html=1;rounded=1;edgeStyle=orthogonalEdgeStyle;dashed=0;startArrow=none;endArrow=block;endSize=12;strokeColor=#595959;exitX=0.500;exitY=0.000;exitDx=0;exitDy=0;entryX=1.000;entryY=0.464;entryDx=0;entryDy=0;">
      <mxGeometry width="50" height="50" relative="1" as="geometry">
        <Array as="points">
          <mxPoint x="11076" y="420" />
          <mxPoint x="10131" y="420" />
          <mxPoint x="10131" y="-1093" />
        </Array>
      </mxGeometry>
    </mxCell>
    <mxCell id="label272" parent="edge45" vertex="1" connectable="0" value="user_id:id" style="edgeLabel;resizable=0;html=1;align=left;verticalAlign=top;strokeColor=default;">
      <mxGeometry x="10259" y="400" as="geometry" />
    </mxCell>
    <mxCell id="edge28" edge="1" value="" parent="1" source="node35" target="node31" style="html=1;rounded=1;edgeStyle=orthogonalEdgeStyle;dashed=0;startArrow=none;endArrow=block;endSize=12;strokeColor=#595959;exitX=0.000;exitY=0.500;exitDx=0;exitDy=0;entryX=0.000;entryY=0.500;entryDx=0;entryDy=0;">
      <mxGeometry width="50" height="50" relative="1" as="geometry">
        <Array as="points">
          <mxPoint x="8336" y="1142" />
          <mxPoint x="8336" y="240" />
          <mxPoint x="8410" y="240" />
          <mxPoint x="8410" y="-58" />
        </Array>
      </mxGeometry>
    </mxCell>
    <mxCell id="label170" parent="edge28" vertex="1" connectable="0" value="organization_id:id" style="edgeLabel;resizable=0;html=1;align=left;verticalAlign=top;strokeColor=default;">
      <mxGeometry x="8323" y="220" as="geometry" />
    </mxCell>
    <mxCell id="edge27" edge="1" value="" parent="1" source="node35" target="node39" style="html=1;rounded=1;edgeStyle=orthogonalEdgeStyle;dashed=0;startArrow=none;endArrow=block;endSize=12;strokeColor=#595959;exitX=0.480;exitY=0.000;exitDx=0;exitDy=0;entryX=0.500;entryY=1.000;entryDx=0;entryDy=0;">
      <mxGeometry width="50" height="50" relative="1" as="geometry">
        <Array as="points">
          <mxPoint x="8761" y="912" />
          <mxPoint x="11076" y="912" />
        </Array>
      </mxGeometry>
    </mxCell>
    <mxCell id="label164" parent="edge27" vertex="1" connectable="0" value="invoice_id:id" style="edgeLabel;resizable=0;html=1;align=left;verticalAlign=top;strokeColor=default;">
      <mxGeometry x="9883" y="866" as="geometry" />
    </mxCell>
    <mxCell id="edge64" edge="1" value="" parent="1" source="node35" target="node7" style="html=1;rounded=1;edgeStyle=orthogonalEdgeStyle;dashed=0;startArrow=none;endArrow=block;endSize=12;strokeColor=#595959;exitX=0.500;exitY=1.000;exitDx=0;exitDy=0;entryX=0.500;entryY=0.000;entryDx=0;entryDy=0;">
      <mxGeometry width="50" height="50" relative="1" as="geometry">
        <Array as="points">
          <mxPoint x="8776" y="1415" />
          <mxPoint x="3916" y="1415" />
        </Array>
      </mxGeometry>
    </mxCell>
    <mxCell id="label386" parent="edge64" vertex="1" connectable="0" value="provider_id:id" style="edgeLabel;resizable=0;html=1;align=left;verticalAlign=top;strokeColor=default;">
      <mxGeometry x="3838" y="1407" as="geometry" />
    </mxCell>
    <mxCell id="edge84" edge="1" value="" parent="1" source="node35" target="node18" style="html=1;rounded=1;edgeStyle=orthogonalEdgeStyle;dashed=0;startArrow=none;endArrow=block;endSize=12;strokeColor=#595959;exitX=0.500;exitY=0.000;exitDx=0;exitDy=0;entryX=1.000;entryY=0.464;entryDx=0;entryDy=0;">
      <mxGeometry width="50" height="50" relative="1" as="geometry">
        <Array as="points">
          <mxPoint x="8776" y="420" />
          <mxPoint x="10131" y="420" />
          <mxPoint x="10131" y="-1093" />
        </Array>
      </mxGeometry>
    </mxCell>
    <mxCell id="label506" parent="edge84" vertex="1" connectable="0" value="user_id:id" style="edgeLabel;resizable=0;html=1;align=left;verticalAlign=top;strokeColor=default;">
      <mxGeometry x="9985" y="-1132" as="geometry" />
    </mxCell>
    <mxCell id="edge73" edge="1" value="" parent="1" source="node20" target="node31" style="html=1;rounded=1;edgeStyle=orthogonalEdgeStyle;dashed=0;startArrow=none;endArrow=block;endSize=12;strokeColor=#595959;exitX=0.500;exitY=0.000;exitDx=0;exitDy=0;entryX=0.000;entryY=0.500;entryDx=0;entryDy=0;">
      <mxGeometry width="50" height="50" relative="1" as="geometry">
        <Array as="points">
          <mxPoint x="3916" y="666" />
          <mxPoint x="8336" y="666" />
          <mxPoint x="8336" y="240" />
          <mxPoint x="8410" y="240" />
          <mxPoint x="8410" y="-58" />
        </Array>
      </mxGeometry>
    </mxCell>
    <mxCell id="label440" parent="edge73" vertex="1" connectable="0" value="organization_id:id" style="edgeLabel;resizable=0;html=1;align=left;verticalAlign=top;strokeColor=default;">
      <mxGeometry x="8276" y="443" as="geometry" />
    </mxCell>
    <mxCell id="edge92" edge="1" value="" parent="1" source="node20" target="node39" style="html=1;rounded=1;edgeStyle=orthogonalEdgeStyle;dashed=0;startArrow=none;endArrow=block;endSize=12;strokeColor=#595959;exitX=1.000;exitY=0.500;exitDx=0;exitDy=0;entryX=0.500;entryY=1.000;entryDx=0;entryDy=0;">
      <mxGeometry width="50" height="50" relative="1" as="geometry">
        <Array as="points">
          <mxPoint x="8169" y="1142" />
          <mxPoint x="8169" y="912" />
          <mxPoint x="11076" y="912" />
        </Array>
      </mxGeometry>
    </mxCell>
    <mxCell id="label554" parent="edge92" vertex="1" connectable="0" value="invoice_id:id" style="edgeLabel;resizable=0;html=1;align=left;verticalAlign=top;strokeColor=default;">
      <mxGeometry x="9587" y="892" as="geometry" />
    </mxCell>
    <mxCell id="edge20" edge="1" value="" parent="1" source="node20" target="node7" style="html=1;rounded=1;edgeStyle=orthogonalEdgeStyle;dashed=0;startArrow=none;endArrow=block;endSize=12;strokeColor=#595959;exitX=0.500;exitY=1.000;exitDx=0;exitDy=0;entryX=0.500;entryY=0.000;entryDx=0;entryDy=0;">
      <mxGeometry width="50" height="50" relative="1" as="geometry">
        <Array as="points" />
      </mxGeometry>
    </mxCell>
    <mxCell id="label122" parent="edge20" vertex="1" connectable="0" value="provider_id:id" style="edgeLabel;resizable=0;html=1;align=left;verticalAlign=top;strokeColor=default;">
      <mxGeometry x="3887" y="1405" as="geometry" />
    </mxCell>
    <mxCell id="edge66" edge="1" value="" parent="1" source="node20" target="node35" style="html=1;rounded=1;edgeStyle=orthogonalEdgeStyle;dashed=0;startArrow=none;endArrow=block;endSize=12;strokeColor=#595959;exitX=1.000;exitY=0.530;exitDx=0;exitDy=0;entryX=0.000;entryY=0.536;entryDx=0;entryDy=0;">
      <mxGeometry width="50" height="50" relative="1" as="geometry">
        <Array as="points" />
      </mxGeometry>
    </mxCell>
    <mxCell id="label398" parent="edge66" vertex="1" connectable="0" value="session_id:id" style="edgeLabel;resizable=0;html=1;align=left;verticalAlign=top;strokeColor=default;">
      <mxGeometry x="6316" y="1108" as="geometry" />
    </mxCell>
    <mxCell id="edge47" edge="1" value="" parent="1" source="node20" target="node8" style="html=1;rounded=1;edgeStyle=orthogonalEdgeStyle;dashed=0;startArrow=none;endArrow=block;endSize=12;strokeColor=#595959;exitX=1.000;exitY=0.470;exitDx=0;exitDy=0;entryX=0.000;entryY=0.450;entryDx=0;entryDy=0;">
      <mxGeometry width="50" height="50" relative="1" as="geometry">
        <Array as="points">
          <mxPoint x="4336" y="1127" />
          <mxPoint x="4336" y="-1093" />
        </Array>
      </mxGeometry>
    </mxCell>
    <mxCell id="label284" parent="edge47" vertex="1" connectable="0" value="price_plan_id:id" style="edgeLabel;resizable=0;html=1;align=left;verticalAlign=top;strokeColor=default;">
      <mxGeometry x="4296" y="-1113" as="geometry" />
    </mxCell>
    <mxCell id="edge31" edge="1" value="" parent="1" source="node20" target="node18" style="html=1;rounded=1;edgeStyle=orthogonalEdgeStyle;dashed=0;startArrow=none;endArrow=block;endSize=12;strokeColor=#595959;exitX=0.481;exitY=0.000;exitDx=0;exitDy=0;entryX=1.000;entryY=0.464;entryDx=0;entryDy=0;">
      <mxGeometry width="50" height="50" relative="1" as="geometry">
        <Array as="points">
          <mxPoint x="3901" y="420" />
          <mxPoint x="10131" y="420" />
          <mxPoint x="10131" y="-1093" />
        </Array>
      </mxGeometry>
    </mxCell>
    <mxCell id="label188" parent="edge31" vertex="1" connectable="0" value="user_id:id" style="edgeLabel;resizable=0;html=1;align=left;verticalAlign=top;strokeColor=default;">
      <mxGeometry x="9985" y="-1093" as="geometry" />
    </mxCell>
    <mxCell id="edge72" edge="1" value="" parent="1" source="node8" target="node22" style="html=1;rounded=1;edgeStyle=orthogonalEdgeStyle;dashed=0;startArrow=none;endArrow=block;endSize=12;strokeColor=#595959;exitX=0.000;exitY=0.500;exitDx=0;exitDy=0;entryX=0.000;entryY=0.500;entryDx=0;entryDy=0;">
      <mxGeometry width="50" height="50" relative="1" as="geometry">
        <Array as="points">
          <mxPoint x="1968" y="-1078" />
          <mxPoint x="1968" y="1942" />
        </Array>
      </mxGeometry>
    </mxCell>
    <mxCell id="label434" parent="edge72" vertex="1" connectable="0" value="codes_currency_id:id" style="edgeLabel;resizable=0;html=1;align=left;verticalAlign=top;strokeColor=default;">
      <mxGeometry x="1913" y="1922" as="geometry" />
    </mxCell>
    <mxCell id="edge22" edge="1" value="" parent="1" source="node15" target="node7" style="html=1;rounded=1;edgeStyle=orthogonalEdgeStyle;dashed=0;startArrow=none;endArrow=block;endSize=12;strokeColor=#595959;exitX=0.500;exitY=1.000;exitDx=0;exitDy=0;entryX=0.500;entryY=0.000;entryDx=0;entryDy=0;">
      <mxGeometry width="50" height="50" relative="1" as="geometry">
        <Array as="points">
          <mxPoint x="3196" y="1415" />
          <mxPoint x="3916" y="1415" />
        </Array>
      </mxGeometry>
    </mxCell>
    <mxCell id="label134" parent="edge22" vertex="1" connectable="0" value="provider_id:id" style="edgeLabel;resizable=0;html=1;align=left;verticalAlign=top;strokeColor=default;">
      <mxGeometry x="3887" y="1411" as="geometry" />
    </mxCell>
    <mxCell id="edge71" edge="1" value="" parent="1" source="node15" target="node20" style="html=1;rounded=1;edgeStyle=orthogonalEdgeStyle;dashed=0;startArrow=none;endArrow=block;endSize=12;strokeColor=#595959;exitX=1.000;exitY=0.500;exitDx=0;exitDy=0;entryX=0.000;entryY=0.500;entryDx=0;entryDy=0;">
      <mxGeometry width="50" height="50" relative="1" as="geometry">
        <Array as="points" />
      </mxGeometry>
    </mxCell>
    <mxCell id="label428" parent="edge71" vertex="1" connectable="0" value="transaction_id:id" style="edgeLabel;resizable=0;html=1;align=left;verticalAlign=top;strokeColor=default;">
      <mxGeometry x="3456" y="1085" as="geometry" />
    </mxCell>
    <mxCell id="edge4" edge="1" value="" parent="1" source="node18" target="node31" style="html=1;rounded=1;edgeStyle=orthogonalEdgeStyle;dashed=0;startArrow=none;endArrow=block;endSize=12;strokeColor=#595959;exitX=1.000;exitY=0.500;exitDx=0;exitDy=0;entryX=0.000;entryY=0.500;entryDx=0;entryDy=0;">
      <mxGeometry width="50" height="50" relative="1" as="geometry">
        <Array as="points">
          <mxPoint x="9955" y="-1078" />
          <mxPoint x="9955" y="240" />
          <mxPoint x="8410" y="240" />
          <mxPoint x="8410" y="-58" />
        </Array>
      </mxGeometry>
    </mxCell>
    <mxCell id="label26" parent="edge4" vertex="1" connectable="0" value="organization_id:id" style="edgeLabel;resizable=0;html=1;align=left;verticalAlign=top;strokeColor=default;">
      <mxGeometry x="9854" y="-429" as="geometry" />
    </mxCell>
    <mxCell id="edge33" edge="1" value="" parent="1" source="node18" target="node28" style="html=1;rounded=1;edgeStyle=orthogonalEdgeStyle;dashed=0;startArrow=none;endArrow=block;endSize=12;strokeColor=#595959;exitX=1.000;exitY=0.391;exitDx=0;exitDy=0;entryX=0.500;entryY=0.000;entryDx=0;entryDy=0;">
      <mxGeometry width="50" height="50" relative="1" as="geometry">
        <Array as="points">
          <mxPoint x="10601" y="-1123" />
        </Array>
      </mxGeometry>
    </mxCell>
    <mxCell id="label200" parent="edge33" vertex="1" connectable="0" value="role_id:id" style="edgeLabel;resizable=0;html=1;align=left;verticalAlign=top;strokeColor=default;">
      <mxGeometry x="10583" y="-918" as="geometry" />
    </mxCell>
    <mxCell id="edge90" edge="1" value="" parent="1" source="node23" target="node7" style="html=1;rounded=1;edgeStyle=orthogonalEdgeStyle;dashed=0;startArrow=none;endArrow=block;endSize=12;strokeColor=#595959;exitX=1.000;exitY=0.500;exitDx=0;exitDy=0;entryX=0.500;entryY=0.000;entryDx=0;entryDy=0;">
      <mxGeometry width="50" height="50" relative="1" as="geometry">
        <Array as="points">
          <mxPoint x="6030" y="1862" />
          <mxPoint x="6030" y="1415" />
          <mxPoint x="3916" y="1415" />
        </Array>
      </mxGeometry>
    </mxCell>
    <mxCell id="label542" parent="edge90" vertex="1" connectable="0" value="provider_id:id" style="edgeLabel;resizable=0;html=1;align=left;verticalAlign=top;strokeColor=default;">
      <mxGeometry x="5377" y="1842" as="geometry" />
    </mxCell>
  </root>
</mxGraphModel>